<?xml version="1.0" encoding="UTF-8"?>
<svg width="54px" height="64px" viewBox="0 0 54 64" version="1.1" xmlns="http://www.w3.org/2000/svg" xmlns:xlink="http://www.w3.org/1999/xlink">
    <title>icon_pin_mappa_64px</title>
    <g id="Page-1" stroke="none" stroke-width="1" fill="none" fill-rule="evenodd">
        <g id="la-tua-città" transform="translate(-407.000000, -319.000000)" fill-rule="nonzero">
            <g id="icon_pin_mappa_64px" transform="translate(407.000000, 319.000000)">
                <g id="Group-7">
                    <path d="M44.9912663,7.77952893 C34.6928359,-2.59261838 18.0237766,-2.59373422 7.72423829,7.77952893 C-2.57394592,18.1513043 -2.57554624,34.9400539 7.72423829,45.313317 L24.9651043,62.6775944 C25.734366,63.4523625 26.9813848,63.4522385 27.7505234,62.6775944 L44.9913894,45.313317 C55.2894505,34.9415417 55.2910509,18.1529161 44.9912663,7.77952893 L44.9912663,7.77952893 Z" id="Shape" fill="#4DD49C"></path>
                    <path d="M33.8112134,34.0531337 C29.6921836,38.2017588 23.024301,38.2026463 18.9042799,34.0531337 C14.7850298,29.9043977 14.7843689,23.1890078 18.9042799,19.0397171 C23.0231995,14.8910921 29.6911923,14.8903155 33.8111033,19.0397171 C37.9303534,23.1882313 37.9310143,29.903843 33.8112134,34.0531337 Z" id="Path" fill="#FFFFFF" transform="translate(26.357698, 26.546446) scale(-1, 1) translate(-26.357698, -26.546446) "></path>
                </g>
            </g>
        </g>
    </g>
</svg>