<?xml version="1.0" encoding="UTF-8"?>
<svg width="35px" height="42px" viewBox="0 0 35 42" version="1.1" xmlns="http://www.w3.org/2000/svg" xmlns:xlink="http://www.w3.org/1999/xlink">
    <title>icon_pin_mappa_24px</title>
    <g id="Page-1" stroke="none" stroke-width="1" fill="none" fill-rule="evenodd">
        <g id="la-tua-città" transform="translate(-309.000000, -327.000000)" fill-rule="nonzero">
            <g id="icon_pin_mappa_24px" transform="translate(309.000000, 327.000000)">
                <g id="Group-7">
                    <path d="M29.5255185,5.10531586 C22.7671736,-1.70140581 11.8281034,-1.70213809 5.06903138,5.10531586 C-1.68915201,11.9117934 -1.69020222,22.9294103 5.06903138,29.7368643 L16.3833497,41.1321713 C16.8881777,41.6406129 17.7065338,41.6405315 18.211281,41.1321713 L29.5255993,29.7368643 C36.2837019,22.9303867 36.2847521,11.9128512 29.5255185,5.10531586 L29.5255185,5.10531586 Z" id="Shape" fill="#4DD49C"></path>
                    <path d="M22.1886088,22.347369 C19.4854955,25.0699042 15.1096975,25.0704866 12.4059337,22.347369 C9.70267578,19.624761 9.70224207,15.2177864 12.4059337,12.4948144 C15.1089747,9.77227918 19.4848449,9.77176956 22.1885365,12.4948144 C24.8917944,15.2172768 24.8922281,19.624397 22.1886088,22.347369 Z" id="Path" fill="#FFFFFF" transform="translate(17.297240, 17.421105) scale(-1, 1) translate(-17.297240, -17.421105) "></path>
                </g>
            </g>
        </g>
    </g>
</svg>