<?xml version="1.0" encoding="UTF-8"?>
<svg width="35px" height="42px" viewBox="0 0 35 42" version="1.1" xmlns="http://www.w3.org/2000/svg" xmlns:xlink="http://www.w3.org/1999/xlink">
    <title>icon_cestino_mappa_42px</title>
    <g id="Page-1" stroke="none" stroke-width="1" fill="none" fill-rule="evenodd">
        <g id="la-tua-città" transform="translate(-309.000000, -226.000000)" fill-rule="nonzero">
            <g id="icon_cestino_mappa_42px" transform="translate(309.000000, 226.000000)">
                <g id="position-copy-9" fill="#4DD49C">
                    <g id="Group-7">
                        <path d="M29.5255185,5.10531586 C22.7671736,-1.70140581 11.8281034,-1.70213809 5.06903138,5.10531586 C-1.68915201,11.9117934 -1.69020222,22.9294103 5.06903138,29.7368643 L16.3833497,41.1321713 C16.8881777,41.6406129 17.7065338,41.6405315 18.211281,41.1321713 L29.5255993,29.7368643 C36.2837019,22.9303867 36.2847521,11.9128512 29.5255185,5.10531586 L29.5255185,5.10531586 Z" id="Shape"></path>
                    </g>
                </g>
                <g id="Group-5" transform="translate(11.200000, 5.600000)" fill="#FFFFFF">
                    <g id="2948321" transform="translate(2.800000, 0.000000)">
                        <path d="M7.447167,2.872233 C7.29057966,2.872233 7.13410698,2.81249514 7.01466948,2.69301942 C6.26421978,1.94226396 5.26610448,1.5288 4.2042,1.5288 C3.14229552,1.5288 2.14418022,1.94226396 1.39376874,2.69301942 C1.15504662,2.93189442 0.76780158,2.93197086 0.52892658,2.69321052 C0.2900898,2.45445018 0.28997514,2.06724336 0.52873548,1.82840658 C1.51018686,0.84649656 2.8154763,0.30576 4.2042,0.30576 C5.5929237,0.30576 6.89821314,0.84649656 7.87966452,1.82840658 C8.11842486,2.06728158 8.1183102,2.45445018 7.87947342,2.69321052 C7.76007414,2.81253336 7.60356324,2.872233 7.447167,2.872233 L7.447167,2.872233 Z" id="Path"></path>
                        <path d="M5.9340372,4.3853628 C5.7775263,4.3853628 5.62105362,4.32566316 5.50165434,4.20626388 C5.15522826,3.85987602 4.69448616,3.66912 4.2042,3.66912 C3.71391384,3.66912 3.25317174,3.85987602 2.90678388,4.20626388 C2.66798532,4.44506244 2.2807785,4.44506244 2.04197994,4.20626388 C1.80314316,3.9674271 1.80314316,3.5802585 2.04197994,3.34145994 C2.61933126,2.7640704 3.3872475,2.44608 4.2042,2.44608 C5.0211525,2.44608 5.78906874,2.7640704 6.36642006,3.34145994 C6.60525684,3.5802585 6.60525684,3.96746532 6.36642006,4.20626388 C6.24702078,4.32566316 6.09050988,4.3853628 5.9340372,4.3853628 Z" id="Path"></path>
                        <path d="M4.2042,7.03248 C3.69843474,7.03248 3.28692,6.62096526 3.28692,6.1152 C3.28692,5.60943474 3.69843474,5.19792 4.2042,5.19792 C4.70996526,5.19792 5.12148,5.60943474 5.12148,6.1152 C5.12148,6.62096526 4.70996526,7.03248 4.2042,7.03248 Z" id="Path"></path>
                    </g>
                    <path d="M12.4639242,12.5059718 L11.1428499,24.3953347 C11.0980051,24.7988679 10.7815923,25.1123815 10.3879688,25.1618314 L10.2788486,25.16864 L2.87494662,25.16864 C2.46889097,25.16864 2.1223773,24.8887863 2.02976277,24.5030346 L2.0109453,24.3953347 L0.689871,12.5059718 L12.4639242,12.5059718 Z M9.38463873,19.5974436 C9.35015813,19.6107646 9.37087113,19.6032494 8.55222253,20.0765222 C8.44181993,20.1404938 8.40418233,20.2820198 8.46827713,20.3923916 L8.78821213,20.9440042 L7.91187513,20.9440042 L7.91067393,20.7175934 C7.90958053,20.5124808 7.66043933,20.4105636 7.51589493,20.5559242 L6.59432813,21.4823574 C6.50442293,21.57274 6.50474633,21.7190862 6.59520593,21.8090376 L7.52163913,22.730589 C7.66670713,22.8749332 7.91660293,22.772323 7.91554033,22.5656088 L7.91430833,22.3293266 L9.99210713,22.3293266 C10.5256709,22.329342 10.8586497,21.7483154 10.5916907,21.2886716 C10.5232839,21.1708924 9.77521353,19.8826824 9.66739813,19.6970508 C9.61066453,19.599384 9.49129913,19.5565566 9.38463873,19.5974436 Z M5.06276733,18.5920854 L3.79808853,18.920937 C3.59947473,18.9725886 3.56206813,19.2396246 3.73926053,19.3436978 L3.94055393,19.4619236 L2.89178313,21.2920904 C2.62996773,21.7488236 2.95866533,22.329342 3.49330713,22.329342 L5.34130713,22.329342 C5.46888073,22.329342 5.57230713,22.2259156 5.57230713,22.098342 L5.57230713,21.174342 C5.57230713,21.0467684 5.46888073,20.943342 5.34130713,20.9440042 L4.68911713,20.9440042 L5.13574793,20.163794 L5.33279093,20.2795096 C5.50959833,20.3833826 5.72507513,20.2212052 5.67333113,20.022191 L5.34447953,18.7575122 C5.31237053,18.634035 5.18618293,18.5599764 5.06276733,18.5920854 Z M6.15787673,15.734985 L5.20470913,17.3181974 C5.13893573,17.427445 5.17418633,17.5694484 5.28346473,17.6352372 L6.07507093,18.111821 C6.18438013,18.1776252 6.32629113,18.1423592 6.39211073,18.0330654 L6.74509413,17.4467566 L7.20952733,18.2350056 L7.01049773,18.3523228 C6.83378273,18.4564884 6.87097373,18.7235552 7.07000333,18.7749912 L8.33519033,19.1018408 C8.45866753,19.1337342 8.58473193,19.0594446 8.61662533,18.9359674 L8.94347493,17.670765 C8.99488013,17.4718586 8.77938793,17.3097274 8.60254973,17.41397 L8.40358173,17.531241 L7.34855853,15.7403134 C7.08589613,15.2942524 6.43131913,15.2807466 6.15787673,15.734985 Z M12.1735286,9.06009482 C12.4110038,9.06009482 12.6251571,9.19300368 12.7325435,9.39870222 L12.7717863,9.49113998 L13.198589,10.7702105 C13.286495,11.0336505 13.1162423,11.3049873 12.8550111,11.352144 L12.7740795,11.3593336 L0.45000228,11.3593336 C0.172281862,11.3593336 -0.0312096307,11.1119459 0.00673671291,10.8492473 L0.02553096,10.7702105 L0.4523337,9.49113998 C0.52751244,9.26590474 0.721378613,9.10481222 0.950487432,9.06805839 L1.05059136,9.06009482 L12.1735286,9.06009482 Z" id="Combined-Shape"></path>
                </g>
            </g>
        </g>
    </g>
</svg>