<?xml version="1.0" encoding="UTF-8"?>
<svg width="54px" height="64px" viewBox="0 0 54 64" version="1.1" xmlns="http://www.w3.org/2000/svg" xmlns:xlink="http://www.w3.org/1999/xlink">
    <title>icon_cestino_mappa_64px</title>
    <g id="Page-1" stroke="none" stroke-width="1" fill="none" fill-rule="evenodd">
        <g id="la-tua-città" transform="translate(-407.000000, -226.000000)" fill-rule="nonzero">
            <g id="icon_cestino_mappa_64px" transform="translate(407.000000, 226.000000)">
                <g id="position-copy-9" fill="#4DD49C">
                    <g id="Group-7">
                        <path d="M44.9912663,7.77952893 C34.6928359,-2.59261838 18.0237766,-2.59373422 7.72423829,7.77952893 C-2.57394592,18.1513043 -2.57554624,34.9400539 7.72423829,45.313317 L24.9651043,62.6775944 C25.734366,63.4523625 26.9813848,63.4522385 27.7505234,62.6775944 L44.9913894,45.313317 C55.2894505,34.9415417 55.2910509,18.1529161 44.9912663,7.77952893 L44.9912663,7.77952893 Z" id="Shape"></path>
                    </g>
                </g>
                <g id="Group-5" transform="translate(17.066667, 8.533333)" fill="#FFFFFF">
                    <g id="2948321" transform="translate(4.266667, 0.000000)">
                        <path d="M11.348064,4.376736 C11.1094547,4.376736 10.8710202,4.28570688 10.6890202,4.10364864 C9.54547776,2.95964032 8.02454016,2.3296 6.4064,2.3296 C4.78825984,2.3296 3.26732224,2.95964032 2.12383808,4.10364864 C1.76007104,4.46764864 1.16998336,4.46776512 0.80598336,4.10393984 C0.4420416,3.74011456 0.44186688,3.15008512 0.80569216,2.78614336 C2.30123712,1.28989952 4.2902496,0.46592 6.4064,0.46592 C8.5225504,0.46592 10.5115629,1.28989952 12.0071078,2.78614336 C12.3709331,3.15014336 12.3707584,3.74011456 12.0068166,4.10393984 C11.8248749,4.28576512 11.5863821,4.376736 11.348064,4.376736 L11.348064,4.376736 Z" id="Path"></path>
                        <path d="M9.0423424,6.6824576 C8.8038496,6.6824576 8.56541504,6.59148672 8.38347328,6.40954496 C7.85558592,5.88171584 7.15350272,5.59104 6.4064,5.59104 C5.65929728,5.59104 4.95721408,5.88171584 4.42938496,6.40954496 C4.06550144,6.77342848 3.475472,6.77342848 3.11158848,6.40954496 C2.74764672,6.0456032 2.74764672,5.455632 3.11158848,5.09174848 C3.99136192,4.2119168 5.16152,3.72736 6.4064,3.72736 C7.65128,3.72736 8.82143808,4.2119168 9.70121152,5.09174848 C10.0651533,5.455632 10.0651533,6.04566144 9.70121152,6.40954496 C9.51926976,6.59148672 9.28077696,6.6824576 9.0423424,6.6824576 Z" id="Path"></path>
                        <path d="M6.4064,10.71616 C5.63571008,10.71616 5.00864,10.0890899 5.00864,9.3184 C5.00864,8.54771008 5.63571008,7.92064 6.4064,7.92064 C7.17708992,7.92064 7.80416,8.54771008 7.80416,9.3184 C7.80416,10.0890899 7.17708992,10.71616 6.4064,10.71616 Z" id="Path"></path>
                    </g>
                    <path d="M18.9926464,19.0567189 L16.9795808,37.1738434 C16.9100034,37.7999312 16.4114235,38.2838129 15.7964541,38.3455479 L15.6630074,38.3522133 L4.38087104,38.3522133 C3.75086955,38.3522133 3.21492798,37.9101215 3.08565948,37.3057366 L3.0642976,37.1738434 L1.051232,19.0567189 L18.9926464,19.0567189 Z M14.3004019,29.8627712 L14.2801428,29.8712422 C14.2326844,29.89357 14.1093139,29.9699605 13.0319581,30.5927957 C12.8637256,30.6902763 12.8063731,30.9059349 12.9040413,31.0741205 L13.3915613,31.9146731 L12.0561907,31.9146731 L12.0543603,31.5696661 C12.0526941,31.2571136 11.6730504,31.1018112 11.4527923,31.3233131 L10.0485,32.7350208 C9.91150161,32.8727467 9.91199441,33.0957504 10.0498376,33.2328192 L11.4615453,34.637088 C11.6826013,34.8570411 12.0633949,34.7006827 12.0617757,34.3856896 L12.0598984,34.0256405 L15.226068,34.0256405 C16.0391176,34.025664 16.5465139,33.1402901 16.1397192,32.4398805 C16.0354803,32.2604075 14.8955635,30.2974208 14.7312733,30.0145536 C14.6448221,29.865728 14.462932,29.8004672 14.3004019,29.8627712 Z M7.71469307,28.3307968 L5.78756347,28.831904 C5.48491387,28.9106112 5.42791334,29.3175232 5.69792081,29.4761109 L6.00465361,29.6562645 L4.40652667,32.4450901 C4.00756987,33.1410645 4.50844241,34.025664 5.32313467,34.025664 L8.13913467,34.025664 C8.33353254,34.025664 8.49113467,33.8680619 8.49113467,33.673664 L8.49113467,32.265664 C8.49113467,32.0712661 8.33353254,31.913664 8.13913467,31.9146731 L7.14532134,31.9146731 L7.82590161,30.7257813 L8.12615761,30.9021099 C8.39557841,31.0603925 8.72392401,30.8132651 8.64507601,30.5100053 L8.14396881,28.5828757 C8.09504081,28.39472 7.90275494,28.2818688 7.71469307,28.3307968 Z M9.38343121,23.97712 L7.93098534,26.3896341 C7.83075921,26.5561067 7.88447441,26.7724928 8.05099387,26.8727424 L9.25725094,27.5989653 C9.42381734,27.6992384 9.64006267,27.6454997 9.74035921,27.4789568 L10.2782387,26.5855339 L10.9859464,27.7866752 L10.6826632,27.9654443 C10.4133832,28.1241728 10.4700552,28.5311317 10.7733384,28.6095104 L12.7012424,29.1075669 C12.8893981,29.1561664 13.0814963,29.0429632 13.1300957,28.8548075 L13.6281523,26.92688 C13.706484,26.6237845 13.3781149,26.3767275 13.1086472,26.5355733 L12.8054579,26.714272 L11.1978035,23.9852395 C10.797556,23.3055275 9.80010534,23.2849472 9.38343121,23.97712 Z M18.5501389,13.8058588 C18.9223449,13.8058588 19.2569529,14.0201249 19.4155957,14.3489682 L19.4617696,14.4626895 L20.1121357,16.4117493 C20.2489581,16.8217839 19.9753558,17.2443727 19.5628098,17.3026506 L19.465264,17.3094607 L0.68571776,17.3094607 C0.25345632,17.3094607 -0.0607948343,16.91616 0.0144919755,16.506424 L0.03890432,16.4117493 L0.6892704,14.4626895 C0.807101568,14.1096677 1.1162721,13.8600523 1.47841477,13.8136594 L1.60090112,13.8058588 L18.5501389,13.8058588 Z" id="Combined-Shape"></path>
                </g>
            </g>
        </g>
    </g>
</svg>