<svg xmlns="http://www.w3.org/2000/svg" width="52" height="51" viewBox="0 0 52 51">
    <g fill="#CCD7EF">
        <path d="M38.414 12.987L35.486.58c-.096-.404-.5-.654-.904-.558-.404.095-.654.5-.56.903l2.93 12.409c.08.345.39.579.73.579.057 0 .115-.007.173-.02.404-.096.654-.5.559-.905zM47.072 49.675l-8.088-34.27c-.095-.404-.5-.654-.904-.559-.403.095-.654.5-.558.904l8.087 34.27c.082.346.39.58.731.58.057 0 .115-.007.173-.02.404-.096.654-.5.56-.904zM6.187 44.223c-.403-.095-.809.155-.904.559l-1.155 4.894c-.095.403.155.808.559.904.058.013.116.02.173.02.34 0 .65-.233.73-.58l1.156-4.893c.095-.404-.155-.809-.56-.904zM16.618.02c-.403-.095-.808.155-.904.56L6.03 41.614c-.095.404.155.81.559.904.058.014.116.02.173.02.34 0 .65-.233.73-.578L17.178.925c.096-.404-.155-.81-.559-.905zM51.172 49.644L37.29.547c-.113-.4-.528-.631-.927-.518-.4.113-.632.528-.519.927l13.881 49.097c.094.33.395.547.723.547.068 0 .136-.01.205-.029.4-.113.632-.528.519-.927zM14.837.029c-.399-.113-.814.119-.927.518L.028 49.645c-.112.4.12.814.52.927.068.02.136.029.204.029.328 0 .63-.216.723-.547L15.356.957c.113-.4-.12-.815-.519-.928zM27.546.729c-.013-.415-.357-.742-.775-.728-.415.012-.74.36-.728.774l.089 2.875h-1.064l.089-2.875C25.17.36 24.844.013 24.429 0c-.41-.013-.762.313-.774.728l-.113 3.65c-.006.203.07.4.212.546.142.146.336.229.54.229h2.613c.203 0 .398-.083.54-.229.14-.146.217-.343.21-.546l-.111-3.65zM27.716 6.266c-.013-.405-.345-.728-.751-.728h-2.73c-.406 0-.738.323-.75.728l-.198 6.41c-.006.202.07.4.211.545.142.146.337.229.54.229h3.124c.203 0 .398-.083.54-.229.141-.146.217-.343.211-.546l-.197-6.409zm-2.903 5.68l.151-4.905h1.272l.151 4.906h-1.574zM27.987 15.084c-.012-.406-.345-.729-.75-.729h-3.273c-.406 0-.739.323-.751.729l-.226 7.314c-.006.203.07.4.212.546.141.146.336.229.54.229h3.723c.203 0 .398-.083.54-.229.14-.146.217-.343.21-.546l-.225-7.314zm-3.474 6.586l.18-5.812h1.815l.179 5.812h-2.174zM28.317 25.798c-.012-.406-.345-.729-.751-.729h-3.932c-.406 0-.738.323-.75.729l-.275 8.924c-.007.203.07.4.211.547.142.145.336.228.54.228h4.48c.204 0 .398-.083.54-.228.142-.146.218-.343.212-.547l-.275-8.924zm-4.183 8.196l.229-7.422h2.474l.228 7.422h-2.93zM28.724 39.023c-.013-.406-.345-.729-.751-.729h-4.746c-.406 0-.738.323-.75.729l-.333 10.802c-.013.415.313.761.728.774.411.013.761-.313.774-.728l.31-10.074h3.288l.31 10.074c.013.407.347.728.75.728h.024c.415-.013.741-.36.728-.774l-.332-10.802z"/>
    </g>
</svg>
