<svg xmlns="http://www.w3.org/2000/svg" width="32" height="50" viewBox="0 0 32 50">
    <g fill="#FFF">
        <circle cx="25.904" cy="44.338" r="1"/>
        <path d="M28.02 41.666c.476.246 1.061.059 1.307-.417 1.125-2.18 1.72-4.634 1.72-7.098 0-7.51-5.344-13.764-12.407-15.209l-.028-.005c-.697-.141-1.406-.233-2.119-.278v-6.046c0-1.07.87-1.94 1.94-1.94 5.35 0 9.703-4.353 9.703-9.703 0-.536-.435-.97-.97-.97h-2.911c-3.835 0-7.158 2.237-8.732 5.475C13.95 2.237 10.627 0 6.791 0h-2.91c-.536 0-.97.434-.97.97 0 5.35 4.352 9.702 9.702 9.702 1.07 0 1.94.87 1.94 1.94v6.047C6.299 19.173 0 26.041 0 34.151c0 8.56 6.964 15.523 15.523 15.523 2.565 0 5.11-.642 7.357-1.856.471-.255.647-.843.392-1.315-.255-.471-.843-.647-1.315-.392-1.792.968-3.8 1.518-5.842 1.608.27-.141.463-.404.51-.716.229-1.544.88-2.112 1.867-2.972.659-.574 1.405-1.224 2.14-2.26.806-1.135 1.117-2.516.875-3.89l-.365-2.068c-.093-.527-.596-.88-1.123-.787l-1.825.321c-1.061.188-2.12-.234-2.763-1.1-1.312-1.769-3.603-2.389-5.617-1.582l-.017-.011c-.725-.479-1.137-1.163-1.162-1.928-.016-.5.133-.995.414-1.427.097.176.256.345.528.436.34.114.711.03.969-.208.416-.386.316-.858.241-1.156-.03-.398-.301-.895.081-1.442.173-.247.433-.412.73-.465l1.249-.22c1.332-.235 4.363-3.357 5.968-5.271 1.912.477 3.692 1.366 5.228 2.608-2.486 1.46-2.411 1.375-2.567 1.53-.572.571-.908 1.363-.908 2.172v1.23c0 1.693 1.385 3.071 3.078 3.071.624 0 1.13.507 1.13 1.13 0 .467.335.869.795.953l3.532.65c-.025 2.126-.529 4.158-1.5 6.042-.246.476-.06 1.061.417 1.307zM12.613 8.732C8.66 8.732 5.39 5.764 4.91 1.94h1.88c4.127 0 7.511 3.237 7.749 7.305-.568-.326-1.227-.513-1.927-.513zm11.642-6.793h1.88c-.479 3.824-3.75 6.793-7.701 6.793-.701 0-1.36.187-1.927.513.237-4.068 3.622-7.306 7.748-7.306zM13.873 35.404c1.084 1.46 2.87 2.17 4.658 1.854l.869-.153.196 1.114c.151.857-.043 1.72-.547 2.43-.6.847-1.227 1.392-1.832 1.92-.658.573-1.331 1.16-1.829 2.05-.662-.875-1.104-1.068-1.39-1.272-.026-.049-.097-.222-.191-.758-.18-1.017-.743-1.903-1.589-2.494l-.657-.46c.906-1.356.866-3.133-.11-4.448l-.61-.823c1.119-.308 2.32.08 3.032 1.04zm-3.98.94c.494.665.506 1.569.032 2.247l-.509.725c-.308.439-.201 1.045.238 1.352l1.452 1.017c.42.294.7.734.79 1.24.238 1.35.542 1.735 1.177 2.135.206.13.42.265.782.748l.99 1.57c.097.156.235.275.394.352-7.36-.152-13.299-6.185-13.299-13.579 0-.968.105-1.933.31-2.874.309.414.726.757 1.228.977l5.013 2.2 1.402 1.89zm2.585-12.005l-1.217.214c-.808.143-1.512.591-1.982 1.263-.23.33-.391.693-.478 1.074-.093.041-.182.094-.267.158-1.198.908-1.885 2.306-1.838 3.741.009.274.044.543.106.804l-2.545-1.116c-.525-.23-.801-.81-.627-1.32.19-.56.22-1.156.092-1.723 2.423-4.245 6.909-6.866 11.801-6.866.349 0 .697.014 1.045.04-1.702 1.898-3.547 3.523-4.09 3.731zm11.169 5.304c-.624 0-1.138-.507-1.138-1.13v-1.23c0-.262.1-.519.266-.719l2.747-1.598c1.887 2.053 3.088 4.61 3.46 7.356l-2.378-.438c-.363-1.291-1.551-2.24-2.957-2.24z"/>
    </g>
</svg>
