<svg xmlns="http://www.w3.org/2000/svg" width="27" height="52" viewBox="0 0 27 52">
    <g fill="#FFF">
        <path d="M10.228 17.355c.415 0 .75-.336.75-.75v-.462c0-.414-.335-.75-.75-.75-.414 0-.75.336-.75.75v.462c0 .414.336.75.75.75zM16.572 17.355c.414 0 .75-.336.75-.75v-.462c0-.414-.336-.75-.75-.75-.415 0-.75.336-.75.75v.462c0 .414.335.75.75.75z"/>
        <path d="M22.2 31.627h-3.55v-2.25c0-.415-.336-.75-.75-.75h-.75V27.45h.75c.744 0 1.35-.606 1.35-1.35v-1.172c1.498-1.346 2.473-3.146 2.788-5.11.12.02.24.032.362.032 1.542 0 2.75-1.56 2.75-3.55 0-1.115-.404-2.152-1.064-2.813.964-2.543 1.887-5.941 1.007-8.073-.289-.7-.62-1.303-1.01-1.843-.244-.336-.712-.41-1.048-.168-.335.243-.41.712-.167 1.047.32.444.595.946.839 1.536.662 1.607-.102 4.667-1.225 7.485l-.003.008c-.232.582-.48 1.154-.733 1.7-.511-.234-.949-.636-1.24-1.14-.608-1.058-2.047-2.832-4.856-2.832-3.22 0-5.725-3.732-5.75-3.77-.127-.194-.34-.319-.572-.335-.231-.017-.46.075-.615.25-.013.015-1.334 1.506-2.342 2.733-.531.646-.809 1.662-.825 3.021-.009.667-.378 1.266-.953 1.566-.478-1.258-1.443-4.245-1.443-7.844 0-1.1.629-1.882 1.922-2.391 1.083-.426 2.205-.469 2.215-.47.359-.01.647-.212.705-.562.074-.174.944-1.905 6.247-1.905 2.807 0 4.912.367 6.435 1.12.371.185.821.033 1.005-.338.184-.371.032-.821-.34-1.005C19.606.417 17.284 0 14.24 0 9.027 0 7.32 1.607 6.774 2.498c-2 .193-5.125 1.268-5.125 4.33 0 2.707.512 5.09.993 6.733-.622.664-.993 1.664-.993 2.739 0 1.99 1.208 3.55 2.75 3.55.122 0 .243-.011.362-.031.288 1.806 1.132 3.472 2.45 4.79.111.11.224.217.338.32V26.1c0 .744.606 1.35 1.35 1.35h.75v1.177H8.9c-.414 0-.75.335-.75.75v2.25H4.6c-2.509 0-4.55 2.04-4.55 4.55v2.21c0 .414.336.75.75.75s.75-.336.75-.75v-2.21c0-1.564 1.182-2.856 2.7-3.03V49.7h-2.7v-8.057c0-.414-.336-.75-.75-.75s-.75.336-.75.75v8.807c0 .414.336.75.75.75H26c.414 0 .75-.336.75-.75V36.176c0-2.508-2.041-4.55-4.55-4.55zm-6.2-1.5h1.15v1.5h-2.967c.164-.854.917-1.5 1.817-1.5zm1.75-9.677v2.5h-8.7v-2.5h8.7zm1.5 2.252v-1.916l1.172-.563c-.229.894-.626 1.734-1.172 2.479zm4.4-6.402c0 .97-.513 2.05-1.25 2.05-.084 0-.168-.016-.25-.046V16.67c.386-.1.725-.364.907-.752.107-.23.228-.496.357-.79.142.318.236.713.236 1.172zM7.046 13.125c.012-.981.184-1.722.483-2.087.565-.687 1.23-1.459 1.7-2 1.044 1.277 3.4 3.668 6.421 3.668 1.95 0 3.01 1.131 3.556 2.08.355.616.855 1.133 1.444 1.503v2.16l-1.82.874c-.243-.23-.57-.373-.93-.373h-9c-.36 0-.688.143-.93.374l-1.82-.88v-3.098c.554-.588.885-1.374.896-2.221zM3.15 16.3c0-.31.045-.609.127-.88.137.316.384.563.703.7.215.091.444.124.67.1v2.084c-.082.03-.166.046-.25.046-.737 0-1.25-1.08-1.25-2.05zm3.224 3.918l1.176.57v1.918c-.551-.75-.95-1.592-1.176-2.488zM9.05 24.45h8.7v1.5h-8.7v-1.5zm6.6 3v1.195c-.905.094-1.705.551-2.25 1.222-.545-.67-1.345-1.128-2.25-1.222V27.45h4.5zm-6 2.677h1.15c.9 0 1.653.646 1.817 1.5H9.65v-1.5zM5.75 49.7V33.126h2.4V49.7h-2.4zm12.15-1.62c-.414 0-.75.335-.75.75v.87h-7.5V33.126h7.5v12.815c0 .414.336.75.75.75s.75-.336.75-.75V33.126h2.4V49.7h-2.4v-.87c0-.415-.336-.75-.75-.75zm7.35 1.62h-2.7V33.146c1.518.175 2.7 1.467 2.7 3.03V49.7z"/>
        <path d="M13.4 35.25c-.414 0-.75.336-.75.75v.852c0 .414.336.75.75.75s.75-.336.75-.75V36c0-.414-.336-.75-.75-.75zM13.4 40.724c-.414 0-.75.336-.75.75v.852c0 .414.336.75.75.75s.75-.336.75-.75v-.852c0-.414-.336-.75-.75-.75zM13.4 46.198c-.414 0-.75.336-.75.75v.852c0 .414.336.75.75.75s.75-.336.75-.75v-.852c0-.414-.336-.75-.75-.75z"/>
    </g>
</svg>
