<svg xmlns="http://www.w3.org/2000/svg" width="20" height="20" viewBox="0 0 20 20">
    <path fill="#CCD7EF" fill-rule="evenodd" d="M19.484 1.909L13.287.03h-.034c-.034 0-.052-.017-.086-.017h-.172c-.035 0-.052 0-.086.017h-.035L6.902 1.857.912.031C.706-.038.465.014.292.134.12.272 0 .48 0 .703v16.713c0 .31.207.585.5.672l6.195 1.878c.07.017.138.034.207.034.069 0 .138-.017.206-.034l5.99-1.81 5.99 1.81c.069.017.137.034.206.034.155 0 .293-.052.413-.138.173-.138.293-.344.293-.568V2.58c0-.31-.207-.569-.516-.672zM6.196 18.363l-4.785-1.447V1.65l4.785 1.448v15.265zm6.196-1.464l-4.784 1.464V3.115l4.784-1.465V16.9zm6.197 1.464l-4.785-1.447V1.65l4.785 1.448v15.265z"/>
</svg>
