<svg xmlns="http://www.w3.org/2000/svg" width="21" height="21" viewBox="0 0 21 21">
    <g fill="none">
        <path fill="#60E5A1" d="M10.236 0C4.59.002-.06 4.704 0 10.35c.02 1.884.549 3.646 1.456 5.156.06.101.077.224.046.339l-.948 3.54c-.088.328.212.628.54.54l3.54-.948c.115-.03.238-.015.34.046 1.509.907 3.27 1.437 5.155 1.456 5.646.06 10.348-4.589 10.35-10.234C20.482 4.585 15.894-.002 10.236 0z" transform="matrix(-1 0 0 1 21 0)"/>
        <path fill="#14AEA6" d="M16.135 1.866c2.423 3.422 2.58 8.132.045 11.772-3.226 4.633-9.74 5.764-14.34 2.492-.118-.084-.232-.17-.345-.256l-.94 3.51c-.088.329.212.63.54.541l3.54-.948c.115-.03.238-.015.34.046 1.509.907 3.27 1.437 5.155 1.456 5.646.06 10.348-4.589 10.35-10.234.002-3.463-1.716-6.524-4.345-8.379z" transform="matrix(-1 0 0 1 21 0)"/>
    </g>
</svg>
