<svg xmlns="http://www.w3.org/2000/svg" width="52" height="52" viewBox="0 0 52 52">
    <g fill="#FFF">
        <path d="M48.9 24.018c1.103-1.68 1.683-3.617 1.683-5.654 0-2.704-1.038-5.26-2.92-7.2-1.575-1.622-3.598-2.666-5.797-3.012.096-.456.144-.922.144-1.395C42.01 3.03 38.98 0 35.253 0c-3.726 0-6.757 3.031-6.757 6.757 0 .798.138 1.577.406 2.31-5.18.304-9.302 4.614-9.302 9.87 0 2.45.88 4.75 2.492 6.56-.72 1.279-1.096 2.716-1.096 4.2 0 4.74 3.856 8.596 8.596 8.596 2.085 0 4.069-.762 5.608-2.086V49.2H24.6v-3.703c1.178-.535 2-1.721 2-3.097 0-1.875-1.525-3.4-3.4-3.4H3.4C1.525 39 0 40.525 0 42.4c0 1.376.822 2.563 2 3.097V50.2c0 .552.448 1 1 1h4c.552 0 1-.448 1-1v-4.4h10.6v3.4h-.95c-.552 0-1 .448-1 1s.448 1 1 1H40.7c.552 0 1-.448 1-1s-.448-1-1-1h-3.5V36.24c1.515 1.303 3.468 2.053 5.527 2.053 4.672 0 8.473-3.8 8.473-8.473 0-2.17-.829-4.237-2.3-5.802zM6 49.2H4v-3.4h2v3.4zm16.6 0h-2v-3.4h2v3.4zm.6-5.4H3.4c-.772 0-1.4-.628-1.4-1.4 0-.772.628-1.4 1.4-1.4h19.8c.772 0 1.4.628 1.4 1.4 0 .772-.628 1.4-1.4 1.4zm19.527-7.507c-2.26 0-4.353-1.183-5.527-3.104V28.53l.025-.022 5.683-5.683c.39-.39.39-1.024 0-1.415-.39-.39-1.024-.39-1.414 0L37.2 25.704v-9.33c0-.553-.448-1-1-1s-1 .447-1 1v2.595l-.797-.797c-.39-.39-1.023-.39-1.414 0-.39.39-.39 1.023 0 1.414l2.211 2.211v6.413l-2.736-2.735-.003-.003-2.416-2.417c-.391-.39-1.024-.39-1.415 0-.39.39-.39 1.024 0 1.414l1.486 1.486-2.715 1.484c-.485.264-.663.872-.398 1.357.182.332.525.52.878.52.163 0 .327-.04.48-.122l3.228-1.766L35.2 31.04v2.128c-1.2 1.934-3.326 3.126-5.608 3.126-3.637 0-6.596-2.959-6.596-6.596 0-1.353.407-2.653 1.179-3.762.281-.404.226-.954-.13-1.294-1.577-1.505-2.445-3.53-2.445-5.705 0-4.348 3.538-7.886 7.886-7.886.315 0 .634.02.974.063.395.048.78-.142.983-.484.202-.342.183-.771-.05-1.094-.587-.813-.897-1.774-.897-2.778C30.496 4.134 32.63 2 35.253 2c2.623 0 4.757 2.134 4.757 4.757 0 .652-.13 1.283-.386 1.878-.13.304-.102.653.075.932.178.279.482.452.812.463 4.526.144 8.071 3.805 8.071 8.334 0 1.89-.618 3.673-1.787 5.157-.332.421-.273 1.03.135 1.379 1.443 1.233 2.27 3.027 2.27 4.92 0 3.57-2.904 6.473-6.473 6.473zM45.506 49.493c-.186-.186-.444-.293-.707-.293-.263 0-.521.107-.707.293-.186.186-.293.444-.293.707 0 .263.107.521.293.707.186.186.444.293.707.293.263 0 .521-.107.707-.293.186-.186.293-.444.293-.707 0-.263-.107-.521-.293-.707zM10.466 17.199c-1.485-.447-3.031.01-4.044 1.054-.285-.294-.617-.546-.988-.746-.946-.508-2.032-.617-3.06-.308-.528.159-.828.716-.669 1.245.16.529.717.829 1.246.67.516-.155 1.061-.1 1.536.154.474.255.82.68.976 1.196.127.423.516.712.958.712.44 0 .83-.29.957-.712.32-1.065 1.447-1.67 2.512-1.35.53.159 1.087-.14 1.246-.67.16-.529-.14-1.086-.67-1.245zM16.846 9.823c-1.027-.31-2.114-.2-3.059.308-.37.2-.702.45-.987.744-.285-.293-.616-.545-.987-.744-.945-.508-2.032-.617-3.059-.308-.529.159-.828.716-.67 1.245.16.53.718.829 1.246.67.516-.155 1.061-.1 1.536.155.474.255.821.68.976 1.195.127.423.517.712.958.712.441 0 .83-.29.958-.712.155-.516.502-.94.976-1.195.475-.255 1.02-.31 1.536-.155.528.159 1.086-.14 1.245-.67.16-.528-.14-1.086-.67-1.245z"/>
        <path d="M29.486 13.084h-.008c-.552 0-.996.447-.996 1 0 .552.452 1 1.004 1s1-.448 1-1c0-.553-.448-1-1-1zM26.663 14.865c-.4-.381-1.033-.366-1.414.034-1.042 1.093-1.616 2.527-1.616 4.037 0 .553.448 1 1 1 .553 0 1-.447 1-1 0-.994.378-1.938 1.064-2.657.38-.4.366-1.033-.034-1.414z"/>
    </g>
</svg>
