<svg xmlns="http://www.w3.org/2000/svg" width="46" height="47" viewBox="0 0 46 47">
    <g fill="#FFF">
        <path d="M44.732 37.716c.497 0 .9-.403.9-.9s-.403-.9-.9-.9h-5.125v-1.18c0-.784-.638-1.423-1.423-1.423h-3.167c-.753 0-1.37.589-1.418 1.33h-2.557c-2.332 0-4.24 1.845-4.345 4.154H10.456c-2.229 0-4.042-1.814-4.042-4.043 0-2.23 1.813-4.044 4.042-4.044h27.476c2.363 0 4.286-1.924 4.286-4.289 0-2.363-1.923-4.286-4.286-4.286H24.779c-.561 0-1.018-.458-1.018-1.021v-5.165c1.919.564 3.802.849 5.634.849 1.04 0 2.062-.091 3.065-.274.489-.089.813-.558.724-1.047-.089-.489-.558-.813-1.046-.724-2.234.406-4.59.303-7.024-.303l9.736-5.625c.43-.25.578-.8.33-1.23-.25-.43-.8-.578-1.23-.33l-9.732 5.624c1.196-4.125 3.58-7.368 6.842-9.25 3.573-2.064 8.033-2.397 12.63-.96-.838 3.74-2.59 6.842-5.092 9.005-.376.325-.418.893-.093 1.27.325.376.894.417 1.27.092 2.984-2.579 5.004-6.315 5.842-10.804.082-.436-.167-.866-.585-1.014C39.67-.664 34.388-.362 30.16 2.08c-3.356 1.937-5.877 5.123-7.299 9.15-1.421-4.026-3.942-7.212-7.298-9.15C11.333-.36 6.05-.663.688 1.23c-.418.147-.666.577-.585 1.013 1.044 5.595 3.95 10.022 8.181 12.465 2.397 1.384 5.132 2.081 8.029 2.081 1.833 0 3.73-.28 5.648-.84v5.166c0 1.556 1.264 2.822 2.818 2.822H37.93c1.371 0 2.487 1.115 2.487 2.485 0 1.372-1.116 2.489-2.487 2.489H10.456c-3.222 0-5.842 2.622-5.842 5.844 0 3.222 2.62 5.843 5.842 5.843h16.24c.105 2.308 2.013 4.154 4.346 4.154h2.557c.047.74.664 1.33 1.418 1.33h3.167c.785 0 1.423-.638 1.423-1.422v-1.181h5.125c.497 0 .9-.403.9-.9 0-.498-.403-.9-.9-.9h-5.125v-3.962h5.125zM10.87 8.825l9.735 5.623c-4.166 1.025-8.161.582-11.42-1.3-3.577-2.065-6.098-5.764-7.155-10.47 4.598-1.436 9.058-1.103 12.633.96 3.262 1.884 5.645 5.126 6.842 9.251L11.77 7.266c-.43-.249-.98-.102-1.23.329-.248.43-.1.98.33 1.23zM33.594 42.95h-2.552c-1.407 0-2.55-1.145-2.55-2.553v-1.4c0-1.409 1.143-2.555 2.55-2.555h2.552v6.508zm4.213 1.329h-2.413v-9.166h2.413v9.166z"/>
        <path d="M35.393 15.07c.176.176.406.264.636.264.23 0 .461-.088.637-.263l.002-.003c.352-.351.35-.92-.001-1.271-.352-.352-.923-.35-1.274 0-.352.352-.352.922 0 1.274z"/>
    </g>
</svg>
