<svg xmlns="http://www.w3.org/2000/svg" width="21" height="21" viewBox="0 0 21 21">
    <g fill="none">
        <path fill="#CE893D" d="M18.331 14.735c1.183-1.543 1.826-3.431 1.829-5.375v2.16c-.004 1.927-.635 3.8-1.8 5.335V14.76l-.029-.025z"/>
        <path fill="#E6A71E" d="M18.36 14.76v2.095c-.515.69-1.12 1.306-1.8 1.833V16.56l-.018-.022c.674-.518 1.276-1.125 1.79-1.803l.028.025z"/>
        <path fill="#FFCB5A" d="M10.08 0c5.566 0 10.08 4.19 10.08 9.36-.003 1.944-.646 3.832-1.829 5.375-.513.678-1.115 1.285-1.789 1.803-.552.434-1.15.807-1.782 1.113-.69.336-1.414.596-2.16.774-1.657.393-3.383.393-5.04 0-.746-.178-1.47-.438-2.16-.774-.632-.306-1.23-.679-1.782-1.113-.674-.518-1.276-1.125-1.79-1.803C.647 13.192.004 11.304 0 9.36 0 4.19 4.514 0 10.08 0z"/>
        <path fill="#CE893D" d="M16.56 16.56v2.128c-.557.437-1.159.812-1.796 1.12l-.004-.008v-2.15c.632-.305 1.23-.678 1.782-1.112l.018.022z"/>
        <path fill="#E6A71E" d="M14.76 19.8l.004.007c-.686.336-1.407.596-2.15.774l-.014-.061v-2.095c.746-.178 1.47-.438 2.16-.774V19.8z"/>
        <path fill="#CE893D" d="M12.614 20.581c-.83.2-1.68.3-2.534.299v-2.16c.849.002 1.695-.098 2.52-.295v2.095l.014.061z"/>
        <path fill="#E6A71E" d="M10.08 18.72v2.16c-.854 0-1.704-.1-2.534-.299l.014-.061v-2.095c.825.197 1.671.297 2.52.295z"/>
        <path fill="#CE893D" d="M7.56 18.425v2.095l-.014.061c-.743-.178-1.464-.438-2.15-.774L5.4 19.8v-2.15c.69.337 1.414.597 2.16.775z"/>
        <path fill="#E6A71E" d="M3.618 16.538c.552.434 1.15.807 1.782 1.113V19.8l-.004.007c-.636-.308-1.239-.683-1.796-1.12V16.56l.018-.022z"/>
        <path fill="#CE893D" d="M1.829 14.735c.513.678 1.115 1.285 1.789 1.803l-.018.022v2.128c-.68-.527-1.285-1.144-1.8-1.833V14.76l.029-.025z"/>
        <path fill="#E6A71E" d="M0 9.36c.003 1.944.646 3.832 1.829 5.375l-.029.025v2.095C.635 15.32.004 13.447 0 11.52V9.36z"/>
        <path fill="#FEB104" d="M18 9.36c0-3.977-3.546-7.2-7.92-7.2-4.374 0-7.92 3.223-7.92 7.2 0 3.977 3.546 7.2 7.92 7.2 4.374 0 7.92-3.223 7.92-7.2z"/>
        <g fill="#FFCB5A">
            <path d="M11.788 10.342l-.493-.524c.421-.392.777-.848 1.056-1.351l.631.346c-.315.57-.718 1.086-1.194 1.53z" transform="translate(3.24 3.24)"/>
            <path d="M6.84 12.24C3.068 12.24 0 9.495 0 6.12S3.068 0 6.84 0s6.84 2.745 6.84 6.12h-.72c0-2.978-2.745-5.4-6.12-5.4S.72 3.142.72 6.12s2.745 5.4 6.12 5.4c1.2.006 2.381-.313 3.416-.922l.368.619c-1.146.675-2.453 1.029-3.784 1.023z" transform="translate(3.24 3.24)"/>
        </g>
    </g>
</svg>
