<svg xmlns="http://www.w3.org/2000/svg" width="22" height="22" viewBox="0 0 22 22">
    <g fill="#CCD7EF" stroke="#CCD7EF" stroke-width=".5">
        <path d="M17.09 2.964l-.035-.035C15.187 1.044 12.643-.009 9.99 0 4.473 0 0 4.472 0 9.992c0 2.649 1.053 5.192 2.925 7.064 3.894 3.91 10.218 3.928 14.13.035 3.912-3.894 3.93-10.216.035-14.127zM10.002 19C5.04 19 1 14.964 1 10.002S5.04 1 10.002 1C14.964 1 19 5.036 19 9.998S14.964 19 10.002 19z" transform="translate(1 1)"/>
        <path d="M10.114 3.136c-3.848 0-6.976 3.128-6.976 6.976s3.128 6.976 6.976 6.976 6.976-3.128 6.976-6.976-3.128-6.976-6.976-6.976zm0 13.152c-3.404 0-6.176-2.772-6.176-6.176 0-3.404 2.772-6.176 6.176-6.176 3.404 0 6.176 2.772 6.176 6.176 0 3.404-2.772 6.176-6.176 6.176z" transform="translate(1 1)"/>
    </g>
</svg>
