<svg xmlns="http://www.w3.org/2000/svg" xmlns:xlink="http://www.w3.org/1999/xlink" width="20" height="20" viewBox="0 0 20 20">
    <defs>
        <path id="prefix__a" d="M7.9 11.3c.442 0 .8.358.8.8v6.8c0 .442-.358.8-.8.8H1.1c-.442 0-.8-.358-.8-.8v-6.8c0-.442.358-.8.8-.8h6.8zm11 0c.442 0 .8.358.8.8v6.8c0 .442-.358.8-.8.8h-6.8c-.442 0-.8-.358-.8-.8v-6.8c0-.442.358-.8.8-.8h6.8zm-.65 1.45h-5.5v5.5h5.5v-5.5zm-11 0h-5.5v5.5h5.5v-5.5zM7.9.3c.442 0 .8.358.8.8v6.8c0 .442-.358.8-.8.8H1.1c-.442 0-.8-.358-.8-.8V1.1c0-.442.358-.8.8-.8h6.8zm11 0c.442 0 .8.358.8.8v6.8c0 .442-.358.8-.8.8h-6.8c-.442 0-.8-.358-.8-.8V1.1c0-.442.358-.8.8-.8h6.8zm-.65 1.45h-5.5v5.5h5.5v-5.5zm-11 0h-5.5v5.5h5.5v-5.5z"/>
    </defs>
    <g fill="none" fill-rule="evenodd">
        <use fill="#2E384D" xlink:href="#prefix__a"/>
    </g>
</svg>
