<svg xmlns="http://www.w3.org/2000/svg" width="185" height="182" viewBox="0 0 185 182">
    <g fill="none" fill-rule="evenodd">
        <g>
            <g fill-rule="nonzero">
                <path fill="#CE893D" d="M73.325 58.94c4.732-6.17 7.302-13.725 7.315-21.5v8.64c-.014 7.708-2.542 15.2-7.2 21.34v-8.38l-.115-.1z" transform="translate(0 47) translate(104)"/>
                <path fill="#E6A71E" d="M73.44 59.04v8.38c-2.058 2.757-4.48 5.223-7.2 7.33v-8.51l-.072-.086c2.697-2.075 5.104-4.502 7.157-7.215l.115.101z" transform="translate(0 47) translate(104)"/>
                <path fill="#FFCB5A" d="M40.32 0c22.262 0 40.32 16.762 40.32 37.44-.013 7.775-2.583 15.33-7.315 21.5-2.053 2.712-4.46 5.139-7.157 7.214-2.209 1.736-4.598 3.228-7.128 4.449-2.758 1.345-5.655 2.383-8.64 3.096-6.628 1.575-13.532 1.575-20.16 0-2.985-.713-5.882-1.751-8.64-3.096-2.53-1.221-4.92-2.713-7.128-4.45-2.697-2.074-5.104-4.5-7.157-7.214C2.583 52.77.013 45.215 0 37.44 0 16.762 18.058 0 40.32 0z" transform="translate(0 47) translate(104)"/>
                <path fill="#CE893D" d="M66.24 66.24v8.51c-2.226 1.75-4.635 3.25-7.186 4.479l-.014-.029v-8.597c2.53-1.221 4.92-2.713 7.128-4.45l.072.087z" transform="translate(0 47) translate(104)"/>
                <path fill="#E6A71E" d="M59.04 79.2l.014.029c-2.743 1.345-5.626 2.383-8.596 3.096l-.058-.245V73.7c2.985-.714 5.882-1.752 8.64-3.097V79.2z" transform="translate(0 47) translate(104)"/>
                <path fill="#CE893D" d="M50.458 82.325c-3.32.796-6.724 1.196-10.138 1.195v-8.64c3.395.006 6.779-.39 10.08-1.18v8.38l.058.245z" transform="translate(0 47) translate(104)"/>
                <path fill="#E6A71E" d="M40.32 74.88v8.64c-3.414.001-6.817-.4-10.138-1.195l.058-.245V73.7c3.301.79 6.685 1.186 10.08 1.18z" transform="translate(0 47) translate(104)"/>
                <path fill="#CE893D" d="M30.24 73.7v8.38l-.058.245c-2.97-.713-5.853-1.751-8.596-3.096l.014-.029v-8.597c2.758 1.345 5.655 2.383 8.64 3.096z" transform="translate(0 47) translate(104)"/>
                <path fill="#E6A71E" d="M14.472 66.154c2.209 1.736 4.599 3.228 7.128 4.449V79.2l-.014.029c-2.547-1.233-4.956-2.735-7.186-4.478V66.24l.072-.086z" transform="translate(0 47) translate(104)"/>
                <path fill="#CE893D" d="M7.315 58.94c2.053 2.712 4.46 5.139 7.157 7.214l-.072.086v8.51c-2.72-2.107-5.142-4.573-7.2-7.33v-8.38l.115-.1z" transform="translate(0 47) translate(104)"/>
                <path fill="#E6A71E" d="M0 37.44c.013 7.775 2.583 15.33 7.315 21.5l-.115.1v8.38C2.542 61.28.014 53.789 0 46.08v-8.64z" transform="translate(0 47) translate(104)"/>
                <path fill="#FEB104" d="M72 37.44c0-15.906-14.183-28.8-31.68-28.8S8.64 21.534 8.64 37.44s14.183 28.8 31.68 28.8S72 53.346 72 37.44z" transform="translate(0 47) translate(104)"/>
                <g fill="#FFCB5A">
                    <path d="M47.15 41.37l-1.969-2.1c1.683-1.568 3.109-3.39 4.224-5.403l2.523 1.386c-1.26 2.278-2.872 4.343-4.778 6.117z" transform="translate(0 47) translate(104) translate(12.96 12.96)"/>
                    <path d="M27.36 48.96C12.273 48.96 0 37.98 0 24.48S12.273 0 27.36 0s27.36 10.981 27.36 24.48h-2.88c0-11.91-10.981-21.6-24.48-21.6S2.88 12.57 2.88 24.48c0 11.91 10.981 21.6 24.48 21.6 4.804.023 9.524-1.25 13.662-3.69l1.476 2.476c-4.585 2.703-9.815 4.118-15.138 4.094z" transform="translate(0 47) translate(104) translate(12.96 12.96)"/>
                </g>
            </g>
            <text fill="#1D2C3C" font-family="Lato-Bold, Lato" font-size="36" font-weight="bold" transform="translate(0 47)">
                <tspan x="35.12" y="54">+1</tspan>
            </text>
        </g>
        <g fill-rule="nonzero">
            <g fill="#F4CA62">
                <path d="M2.23 47.713L.404 44.986l8.362-5.698c2.442-1.814 5.88-1.288 7.679 1.174.427.585.736 1.248.91 1.953.336 1.32 1.67 2.115 2.98 1.776L30.6 41.495l.816 3.186-10.255 2.702c-3.05.802-6.169-1.039-6.967-4.114-.271-1.212-1.465-1.973-2.667-1.7-.343.078-.663.236-.934.463l-8.362 5.68zM11.683 13.757c-3.755 0-6.8-3.07-6.8-6.858S7.928.04 11.683.04c3.756 0 6.801 3.07 6.801 6.858-.005 3.785-3.047 6.852-6.8 6.858zm0-10.424c-1.953 0-3.536 1.596-3.536 3.566 0 1.97 1.583 3.566 3.536 3.566 1.954 0 3.537-1.597 3.537-3.566-.002-1.97-1.584-3.565-3.537-3.566z" transform="rotate(-45 69.228 24.48) translate(43.113 7.444)"/>
                <path d="M2.681 27.395L.141 25.33 9.3 13.88c1.186-1.53 2.713-2.757 4.457-3.582 1.205-.554 2.48-.942 3.788-1.152.061-.01.123-.017.186-.02l15.644-.658.134 3.291-15.547.649c-.985.164-1.945.46-2.854.877-1.279.615-2.397 1.523-3.264 2.653L2.681 27.395z" transform="rotate(-45 69.228 24.48) translate(43.113 7.444)"/>
            </g>
            <g fill="#4ED49C">
                <path d="M1.954.19L.146 11.148 7.533 12.018zM67.934 54.289L58.843 60.691 54.838 54.431zM38.699 14.435L28.064 17.697 30.573 24.689z" transform="rotate(-45 69.228 24.48) translate(.51 10.697)"/>
            </g>
            <path fill="#F4CA62" d="M23.502 30.534h-3.184V19.96c0-3.144 2.494-5.693 5.571-5.693.509.001 1.004-.164 1.414-.472.75-.67 1.002-1.751.628-2.694l-3.277-9.484L27.656.534l3.278 9.484c1.098 2.805-.237 5.989-2.982 7.111-.655.268-1.357.4-2.063.391-1.318 0-2.387 1.093-2.387 2.44v10.574z" transform="rotate(-45 69.228 24.48)"/>
        </g>
        <g fill-rule="nonzero">
            <g fill="#F4CA62">
                <path d="M2.23 47.713L.404 44.986l8.362-5.698c2.442-1.814 5.88-1.288 7.679 1.174.427.585.736 1.248.91 1.953.336 1.32 1.67 2.115 2.98 1.776L30.6 41.495l.816 3.186-10.255 2.702c-3.05.802-6.169-1.039-6.967-4.114-.271-1.212-1.465-1.973-2.667-1.7-.343.078-.663.236-.934.463l-8.362 5.68zM11.683 13.757c-3.755 0-6.8-3.07-6.8-6.858S7.928.04 11.683.04c3.756 0 6.801 3.07 6.801 6.858-.005 3.785-3.047 6.852-6.8 6.858zm0-10.424c-1.953 0-3.536 1.596-3.536 3.566 0 1.97 1.583 3.566 3.536 3.566 1.954 0 3.537-1.597 3.537-3.566-.002-1.97-1.584-3.565-3.537-3.566z" transform="rotate(150 32.772 85.242) translate(43.113 7.444)"/>
                <path d="M2.681 27.395L.141 25.33 9.3 13.88c1.186-1.53 2.713-2.757 4.457-3.582 1.205-.554 2.48-.942 3.788-1.152.061-.01.123-.017.186-.02l15.644-.658.134 3.291-15.547.649c-.985.164-1.945.46-2.854.877-1.279.615-2.397 1.523-3.264 2.653L2.681 27.395z" transform="rotate(150 32.772 85.242) translate(43.113 7.444)"/>
            </g>
            <g fill="#4ED49C">
                <path d="M1.954.19L.146 11.148 7.533 12.018zM67.934 54.289L58.843 60.691 54.838 54.431zM38.699 14.435L28.064 17.697 30.573 24.689z" transform="rotate(150 32.772 85.242) translate(.51 10.697)"/>
            </g>
            <path fill="#F4CA62" d="M23.502 30.534h-3.184V19.96c0-3.144 2.494-5.693 5.571-5.693.509.001 1.004-.164 1.414-.472.75-.67 1.002-1.751.628-2.694l-3.277-9.484L27.656.534l3.278 9.484c1.098 2.805-.237 5.989-2.982 7.111-.655.268-1.357.4-2.063.391-1.318 0-2.387 1.093-2.387 2.44v10.574z" transform="rotate(150 32.772 85.242)"/>
        </g>
    </g>
</svg>
