<svg xmlns="http://www.w3.org/2000/svg" width="47" height="47" viewBox="0 0 47 47">
    <g fill="#FFF">
        <path d="M46.08 32.656c0-1.354-.528-2.628-1.488-3.588l-7.267-7.266-.024-.028-.028-.024-2.427-2.427c-.351-.352-.92-.352-1.273 0-.351.351-.351.921 0 1.273l1.817 1.816-3.005 3.006c-.156.155-.25.362-.262.582-.096 1.583-.772 3.082-1.903 4.218-1.138 1.133-2.637 1.81-4.22 1.905-.22.013-.427.106-.583.262l-3.005 3.005-8.721-8.721 3.004-3.004c.155-.156.248-.363.262-.583.095-1.586.772-3.084 1.906-4.219 1.134-1.134 2.633-1.81 4.22-1.906.219-.013.426-.107.582-.262l3.004-3.004 1.139 1.139c.176.176.406.264.636.264.23 0 .46-.088.637-.264.351-.351.351-.921 0-1.273l-1.775-1.775-.001-.001-2.176-2.176c-3.34-3.34-6.51-3.145-8.825-3.004-1.373.084-2.173.11-2.64-.358L12.512 5.09l.07-.07c.169-.17.264-.398.264-.637s-.095-.468-.264-.636L9.786.954C9.171.34 8.35 0 7.474 0 6.598 0 5.777.339 5.16.954L.954 5.161C.34 5.777 0 6.598 0 7.474c0 .875.339 1.697.954 2.312l2.794 2.796c.168.169.397.264.636.264s.468-.095.637-.264l.07-.07 1.152 1.152c.467.467.442 1.267.358 2.64-.141 2.315-.335 5.485 3.004 8.825l2.176 2.176 9.97 9.97.024.026.025.023 7.268 7.268c.96.96 2.234 1.488 3.588 1.488 2.515 0 4.607-1.84 5.005-4.245 2.133-.354 3.82-2.041 4.174-4.174 2.405-.398 4.245-2.49 4.245-5.005zM2.227 8.513c-.275-.275-.427-.644-.427-1.04 0-.394.152-.764.427-1.039l4.207-4.207c.275-.275.645-.427 1.04-.427s.764.152 1.04.427l2.159 2.158-6.288 6.288-2.158-2.16zm6.171 7.901c.093-1.522.181-2.96-.882-4.023L6.364 11.24l4.875-4.875 1.152 1.152c1.064 1.063 2.502.975 4.024.882 2.191-.134 4.675-.286 7.441 2.48l1.54 1.54-2.77 2.77c-1.896.195-3.673 1.04-5.035 2.403-1.363 1.362-2.208 3.138-2.402 5.034l-2.77 2.77-1.54-1.539c-2.767-2.766-2.615-5.25-2.48-7.442zm33.408 19.417c-.194-.973-.67-1.868-1.387-2.588-.35-.352-.92-.353-1.273-.002-.352.35-.353.92-.002 1.273.619.62.96 1.443.96 2.316 0 1.805-1.469 3.274-3.274 3.274-.873 0-1.696-.34-2.316-.96-.352-.35-.922-.35-1.273.002-.35.353-.35.922.002 1.273.72.717 1.615 1.193 2.587 1.387-.358 1.42-1.645 2.474-3.174 2.474-.873 0-1.695-.341-2.315-.961l-6.656-6.656 2.772-2.772c1.892-.195 3.668-1.038 5.036-2.4 1.36-1.366 2.203-3.142 2.398-5.034l2.772-2.772 6.656 6.656c.62.62.961 1.442.961 2.315 0 1.53-1.054 2.816-2.474 3.175z"/>
        <path d="M26.435 19.157c-.351-.352-.921-.352-1.273 0L19.26 25.06c-.352.352-.352.922 0 1.273.176.176.406.264.636.264.23 0 .461-.088.637-.264l5.903-5.903c.352-.352.352-.922 0-1.273zM28.224 22.218l-5.904 5.904c-.351.351-.351.921 0 1.273.176.175.406.263.637.263.23 0 .46-.088.636-.263l5.904-5.904c.351-.351.351-.921 0-1.273-.352-.351-.922-.351-1.273 0zM30.63 17.733c.175.175.403.262.632.262.23 0 .461-.088.638-.264.351-.352.349-.924-.003-1.276-.351-.351-.921-.351-1.273 0-.351.352-.351.922 0 1.273l.006.005z"/>
    </g>
</svg>
