<svg xmlns="http://www.w3.org/2000/svg" width="29" height="29" viewBox="0 0 29 29">
    <g fill="none" fill-rule="evenodd">
        <path fill="#FFF" d="M0 0H29V29H0z"/>
        <path fill="#CCD7EF" fill-rule="nonzero" stroke="#CCD7EF" stroke-width=".5" d="M22.892 14.6c.673-.486 1.12-1.295 1.12-2.206 0-1.491-1.175-2.697-2.627-2.697-1.451 0-2.625 1.206-2.625 2.697 0 .911.441 1.72 1.12 2.206-.579.206-1.107.524-1.553.935-.614-.537-1.338-.949-2.13-1.192.96-.598 1.607-1.687 1.607-2.926C17.804 9.529 16.316 8 14.477 8c-1.838 0-3.326 1.533-3.326 3.417 0 1.239.641 2.328 1.606 2.926-.783.243-1.497.65-2.107 1.178-.446-.402-.965-.715-1.534-.916.674-.486 1.12-1.295 1.12-2.206 0-1.492-1.174-2.698-2.626-2.698S4.984 10.907 4.984 12.4c0 .911.442 1.72 1.12 2.206C4.297 15.245 3 17.007 3 19.078v.309c0 .01.01.018.018.018h5.566c-.032.258-.05.524-.05.79v.318c0 1.375 1.083 2.487 2.42 2.487h7.055c1.338 0 2.42-1.112 2.42-2.487v-.318c0-.266-.017-.532-.05-.79h5.603c.009 0 .018-.009.018-.018v-.309c-.01-2.075-1.302-3.837-3.108-4.478zm-3.404-2.21c0-1.076.85-1.95 1.897-1.95 1.047 0 1.898.874 1.898 1.95 0 1.06-.833 1.925-1.861 1.948h-.073c-1.033-.018-1.861-.883-1.861-1.949zm-7.618-.973c0-1.472 1.165-2.67 2.598-2.67 1.434 0 2.599 1.198 2.599 2.67 0 1.421-1.088 2.585-2.449 2.664h-.3c-1.36-.08-2.448-1.243-2.448-2.664zm-6.171.972c0-1.075.85-1.949 1.897-1.949 1.047 0 1.898.874 1.898 1.95 0 1.06-.833 1.925-1.861 1.948H7.56c-1.029-.018-1.861-.883-1.861-1.949zm3.012 6.264H3.737c.205-1.991 1.843-3.553 3.832-3.567h.055c.946.005 1.81.365 2.48.95-.655.728-1.142 1.626-1.393 2.617zm10.982 1.86c0 .958-.76 1.74-1.693 1.74h-7.054c-.933 0-1.693-.782-1.693-1.74v-.318c0-2.902 2.257-5.277 5.065-5.361.05.005.105.005.155.005s.104 0 .154-.005c2.808.084 5.066 2.459 5.066 5.361v.318h0zm.541-1.86c-.25-.986-.728-1.87-1.379-2.6.674-.597 1.547-.957 2.503-.967h.055c1.988.014 3.627 1.576 3.832 3.567h-5.01z"/>
    </g>
</svg>
