<svg xmlns="http://www.w3.org/2000/svg" width="17" height="16" viewBox="0 0 17 16">
    <path fill="#FFF" d="M16.34 5.948c-.107-.332-.401-.566-.748-.598l-4.73-.43L8.994.546c-.138-.322-.452-.53-.801-.53-.35 0-.664.208-.8.53L5.521 4.92l-4.73.43c-.347.031-.64.266-.75.597-.107.332-.007.696.255.926l3.575 3.135-1.054 4.643c-.077.34.055.694.338.899.153.11.332.165.511.165.154 0 .309-.04.447-.123l4.078-2.438 4.077 2.438c.3.179.676.162.958-.042.284-.205.416-.558.339-.9l-1.054-4.642 3.575-3.135c.262-.23.362-.593.254-.926z" opacity=".8"/>
</svg>
