<svg xmlns="http://www.w3.org/2000/svg" width="52" height="52" viewBox="0 0 52 52">
    <g fill="#FFF">
        <path d="M24.483 30.8h-5.416V18.467c0-.553-.448-1-1-1s-1 .447-1 1v6.9h-2.4V2h2.4v7.467c0 .552.448 1 1 1s1-.448 1-1V1c0-.552-.448-1-1-1h-4.4c-.552 0-1 .448-1 1v29.8H7.25c-1.975 0-3.583 1.608-3.583 3.583v2.636c0 4.49-1.218 8.868-3.522 12.662-.187.309-.194.695-.016 1.01.177.314.51.509.871.509h22.4c.35 0 .673-.182.855-.481 2.494-4.107 3.812-8.844 3.812-13.7v-2.636c0-1.975-1.608-3.583-3.584-3.583zm-9.816-3.433h2.4V30.8h-2.4v-3.433zM7.25 32.8h17.233c.874 0 1.584.71 1.584 1.584v1.629h-20.4v-1.63c0-.873.71-1.583 1.583-1.583zm15.58 16.4h-5.19c.855-1.65 1.537-3.401 2.035-5.228.145-.533-.17-1.083-.702-1.228-.533-.145-1.083.17-1.228.702-.554 2.035-1.355 3.968-2.383 5.754h-5.188c.854-1.65 1.537-3.401 2.034-5.228.145-.533-.169-1.083-.702-1.228-.533-.145-1.082.17-1.228.702-.554 2.035-1.355 3.968-2.383 5.754H2.71c1.788-3.445 2.793-7.262 2.94-11.18h20.398c-.16 3.95-1.262 7.785-3.217 11.18zM34.7 38.776c-.98 0-1.902.382-2.596 1.075-.39.39-.39 1.024 0 1.415.391.39 1.024.39 1.415 0 .315-.316.735-.49 1.181-.49.447 0 .866.174 1.182.49.315.315.49.735.49 1.181 0 .447-.175.866-.49 1.182-.39.39-.39 1.024 0 1.414.195.195.451.293.707.293.256 0 .512-.098.707-.293.693-.693 1.075-1.615 1.075-2.596 0-.98-.382-1.902-1.075-2.596-.693-.693-1.615-1.075-2.596-1.075zM33.785 26.6c.938 0 1.7.763 1.7 1.7 0 .552.448 1 1 1s1-.448 1-1c0-2.04-1.66-3.7-3.7-3.7s-3.7 1.66-3.7 3.7c0 .552.448 1 1 1s1-.448 1-1c0-.937.763-1.7 1.7-1.7z"/>
        <path d="M47.229 38.504c.469-.859.719-1.825.719-2.824 0-3.253-2.647-5.899-5.9-5.899-1.528 0-2.978.583-4.081 1.641-.399.382-.412 1.015-.03 1.414.382.398 1.015.412 1.414.03.729-.7 1.687-1.085 2.698-1.085 2.15 0 3.899 1.75 3.899 3.899 0 1-.38 1.951-1.068 2.679-.252.266-.338.648-.225.997.114.348.409.606.769.673 2.188.406 3.776 2.318 3.776 4.546 0 2.55-2.075 4.625-4.625 4.625-1.626 0-3.103-.83-3.951-2.22-.288-.47-.903-.62-1.375-.332-.471.288-.62.903-.332 1.375 1.214 1.99 3.33 3.177 5.658 3.177 3.653 0 6.625-2.972 6.625-6.625 0-2.679-1.603-5.038-3.971-6.072zM18.067 12.967c-.263 0-.521.106-.707.293-.186.186-.293.443-.293.707 0 .263.107.521.293.707.186.186.444.293.707.293.263 0 .521-.107.707-.293.186-.186.293-.444.293-.707 0-.264-.107-.521-.293-.707-.186-.187-.444-.293-.707-.293z"/>
    </g>
</svg>
