<svg xmlns="http://www.w3.org/2000/svg" width="23" height="23" viewBox="0 0 23 23">
    <g fill="#CCD7EF" stroke="#CCD7EF" stroke-width=".6">
        <path d="M5.284 18.054c-.307 0-.615-.097-.884-.292-.537-.39-.752-1.051-.546-1.683l1.536-4.713-4.018-2.9c-.539-.39-.755-1.05-.55-1.682.204-.633.766-1.042 1.43-1.042h4.953l1.51-4.698C8.92.41 9.482 0 10.146 0h.003c.664 0 1.225.408 1.43 1.04l1.525 4.702h.536c.221 0 .4.18.4.4 0 .221-.179.4-.4.4h-.827c-.174 0-.327-.111-.38-.276l-1.615-4.98C10.701.929 10.395.8 10.147.8c0 0 0 0 0 0-.248 0-.554.129-.67.488l-1.6 4.977c-.053.165-.207.277-.38.277H2.252c-.378 0-.594.252-.67.488-.076.235-.048.566.258.787l4.254 3.071c.14.102.2.283.146.449l-1.626 4.99c-.117.359.055.642.256.787.2.146.523.222.828 0l4.242-3.09c.14-.103.33-.103.47-.001l4.227 3.072c.306.222.628.145.829 0 .2-.146.372-.43.254-.789l-1.629-4.965c-.054-.165.005-.346.145-.448l4.243-3.077c.306-.221.333-.552.257-.787-.077-.235-.292-.487-.67-.487h-.827c-.221 0-.4-.179-.4-.4 0-.22.179-.4.4-.4h.827c.664 0 1.226.408 1.43 1.04.206.632-.01 1.292-.547 1.682l-4.007 2.905 1.538 4.688c.207.632-.006 1.293-.543 1.684-.538.392-1.232.392-1.77.001l-3.992-2.901-4.006 2.92c-.27.195-.577.293-.886.293z" transform="translate(1 1)"/>
        <path d="M10.16 20.48c-.22 0-.4-.18-.4-.4v-3.235c0-.221.18-.4.4-.4.22 0 .4.179.4.4v3.235c0 .22-.18.4-.4.4zM19.917 13.391c-.04 0-.082-.006-.123-.02l-3.077-1c-.21-.068-.325-.293-.257-.503.068-.21.294-.325.504-.257l3.077 1c.21.068.325.293.257.504-.055.169-.212.276-.38.276zM14.288 4.538c-.081 0-.163-.025-.234-.077-.18-.13-.219-.38-.089-.558l1.902-2.618c.13-.178.38-.218.558-.088.18.13.219.38.089.559l-1.902 2.617c-.078.108-.2.165-.324.165zM6.032 4.538c-.124 0-.246-.057-.324-.165L3.806 1.756c-.13-.179-.09-.43.089-.559.178-.13.428-.09.558.089l1.902 2.617c.13.178.09.429-.089.558-.07.052-.153.077-.234.077h0zM.403 13.391c-.169 0-.326-.107-.38-.276-.069-.21.046-.436.256-.505l3.077-1c.21-.067.436.048.504.258.068.21-.047.435-.257.504l-3.077 1c-.04.013-.082.019-.123.019z" transform="translate(1 1)"/>
        <g>
            <path d="M.44.822C.334.822.23.78.157.705.082.631.04.528.04.422.04.317.082.214.157.14.23.065.334.022.44.022c.105 0 .208.043.282.118C.797.214.84.317.84.422.84.528.797.631.722.705.648.78.545.822.44.822z" transform="translate(1 1) translate(15 5.72)"/>
        </g>
    </g>
</svg>
