<svg xmlns="http://www.w3.org/2000/svg" width="52" height="52" viewBox="0 0 52 52">
    <path fill="#FFF" d="M49.7 31.289v-2.23c0-.415-.336-.75-.75-.75s-.75.335-.75.75v2.23H41V24.61c0-1.005-.818-1.823-1.823-1.823h-3.296v-7.2h6.339c3.297 0 5.98 2.683 5.98 5.98v3.99c0 .415.336.75.75.75s.75-.335.75-.75v-3.99c0-4.125-3.356-7.48-7.48-7.48h-6.529c-.495-1.493-1.903-2.574-3.56-2.574h-2.487v-2.84c1.02-.045 1.865-.773 2.09-1.736h7.516c1.409.006 2.6-1.189 2.6-2.6 0-1.434-1.166-2.6-2.6-2.6h-7.516C31.502.743 30.608 0 29.544 0h-4.888c-1.064 0-1.958.743-2.19 1.738H14.95c-1.423-.008-2.6 1.182-2.6 2.6 0 1.434 1.166 2.6 2.6 2.6h7.516c.225.963 1.07 1.69 2.09 1.736v2.84h-2.487c-1.657 0-3.065 1.08-3.56 2.574h-5.638c-.31-.873-1.143-1.5-2.12-1.5-.979 0-1.812.627-2.122 1.5H.75c-.414 0-.75.336-.75.75s.336.75.75.75H8.5v7.2H.75c-.414 0-.75.336-.75.75s.336.75.75.75h7.879c.31.873 1.143 1.5 2.121 1.5s1.812-.627 2.121-1.5h5.638c.494 1.493 1.903 2.574 3.56 2.574h1.268c.414 0 .75-.335.75-.75 0-.414-.336-.75-.75-.75h-1.268c-1.123 0-2.056-.827-2.223-1.904l-.002-.008c.031-.138-.03-8.263 0-8.526l.001-.004c.167-1.078 1.1-1.906 2.224-1.906h10.062c1.124 0 2.057.828 2.224 1.906v.004c.116.998.102 7.652 0 8.526v.008c-.168 1.077-1.101 1.904-2.224 1.904h-5.294c-.414 0-.75.336-.75.75 0 .415.336.75.75.75h5.294c1.657 0 3.066-1.08 3.56-2.574h3.486c.178 0 .323.145.323.323v6.678c-.828.006-1.5.681-1.5 1.511v1.476c0 .834.678 1.512 1.512 1.512h10.176c.834 0 1.512-.678 1.512-1.512V32.8c0-.83-.672-1.505-1.5-1.511zM31.794 3.238h7.456c.606 0 1.1.494 1.1 1.1 0 .595-.502 1.103-1.1 1.1h-7.456v-2.2zm-9.388 2.2H14.95c-.606 0-1.1-.494-1.1-1.1 0-.599.5-1.103 1.1-1.1h7.456v2.2zM11.5 23.538c0 .414-.336.75-.75.75s-.75-.336-.75-.75v-8.7c0-.413.336-.75.75-.75s.75.337.75.75v8.7zm6.819-.75H13v-7.2h5.319v7.2zm9.825-11.274h-2.088V8.676h2.088v2.838zm-3.488-4.338c-.413 0-.75-.336-.75-.75V2.25c0-.414.337-.75.75-.75h4.888c.413 0 .75.336.75.75v4.176c0 .414-.337.75-.75.75h-4.888zm25.044 27.1c0 .007-.005.012-.012.012H39.512c-.007 0-.012-.005-.012-.012V32.8c0-.006.005-.012.012-.012h10.176c.007 0 .012.006.012.012v1.476zm-4.362 4.107c-.407-.402-1.069-.402-1.476 0-1.416 1.399-4.71 4.917-4.71 7.372 0 3.002 2.444 5.445 5.448 5.445 3.004 0 5.447-2.443 5.447-5.445 0-2.455-3.293-5.973-4.71-7.372zM44.6 49.7c-2.177 0-3.947-1.77-3.947-3.945 0-.933 1.041-3.045 3.947-5.988 2.906 2.943 3.947 5.055 3.947 5.988 0 2.175-1.77 3.945-3.947 3.945z"/>
</svg>
