<svg xmlns="http://www.w3.org/2000/svg" width="62" height="37" viewBox="0 0 62 37">
    <g fill="#FFF">
        <path d="M37.752 16.453c-.38-.325-.954-.28-1.279.102l-3.255 3.818c-.663-.37-1.427-.581-2.238-.581-.124 0-.247.005-.368.014l-.622.046-6.258-14.368h.671c1.857 0 3.367-1.504 3.367-3.354 0-1.15-.938-2.085-2.09-2.085h-6.466c-1.153 0-2.091.936-2.091 2.085 0 1.85 1.51 3.354 3.366 3.354h1.263l1.716 3.94-5.132 5.045c-1.864-1.22-4.09-1.93-6.479-1.93C5.32 12.539 0 17.858 0 24.397c0 6.538 5.319 11.858 11.857 11.858 5.125 0 9.5-3.269 11.153-7.831l7.97.578c2.539 0 4.604-2.066 4.604-4.605 0-1.073-.369-2.062-.986-2.846l3.256-3.819c.325-.381.28-.954-.102-1.279zM20.49 3.669c-.855 0-1.551-.69-1.551-1.539 0-.149.123-.27.275-.27h6.466c.152 0 .276.121.276.27 0 .849-.696 1.54-1.552 1.54h-3.914zM18.49 16.862c1.13.997 2.035 2.242 2.628 3.65l-6.86.511 4.232-4.16zM11.857 34.44c-5.537 0-10.042-4.505-10.042-10.043 0-5.538 4.505-10.044 10.042-10.044 1.88 0 3.642.52 5.149 1.423L11.46 21.23c-1.574.195-2.796 1.541-2.796 3.168 0 1.693 1.325 3.082 2.992 3.186l9.46.7c-1.523 3.614-5.1 6.157-9.26 6.157zm1.377-10.043c0 .76-.618 1.377-1.377 1.377-.76 0-1.377-.618-1.377-1.377 0-.76.618-1.378 1.377-1.378.76 0 1.377.618 1.377 1.378zm8.444 2.1l-7.048-.52c.267-.467.42-1.006.42-1.58 0-.575-.153-1.114-.42-1.58l7.048-.521c.145.678.22 1.38.22 2.1 0 .72-.075 1.423-.22 2.101zm5.437.402l-3.612-.267c.138-.724.21-1.472.21-2.235 0-.764-.072-1.512-.21-2.236l3.612-.267c-.468.721-.74 1.58-.74 2.503 0 .921.272 1.78.74 2.502zm-4.104-6.527c-.67-1.852-1.79-3.49-3.224-4.784l4.457-4.383 3.828 8.79-5.061.377zm7.968 6.815c-1.538 0-2.79-1.252-2.79-2.79 0-1.539 1.252-2.79 2.79-2.79.36 0 .705.068 1.022.193l-1.712 2.008c-.325.381-.28.954.102 1.28.17.145.38.216.588.216.257 0 .511-.108.69-.319l1.712-2.007c.246.416.388.901.388 1.419 0 1.538-1.251 2.79-2.79 2.79zM50.095 12.538c-1.226 0-2.41.187-3.522.534L42.203 1.86h5.138c.153 0 .276.121.276.27 0 .849-.696 1.54-1.551 1.54-.501 0-.908.406-.908.907s.407.907.908.907c1.856 0 3.366-1.504 3.366-3.354 0-1.15-.938-2.085-2.09-2.085h-6.466c-.3 0-.58.148-.749.396-.169.247-.205.562-.096.841L42.999 8.9l-3.751 4.4c-.325.381-.28.954.102 1.28.17.145.38.216.588.216.257 0 .512-.108.691-.319l3.118-3.657 1.14 2.925c-3.935 1.932-6.65 5.98-6.65 10.652 0 6.538 5.32 11.858 11.858 11.858s11.857-5.32 11.857-11.858c0-6.539-5.319-11.859-11.857-11.859zm0 21.902c-5.537 0-10.042-4.505-10.042-10.043 0-3.903 2.237-7.292 5.496-8.954l2.526 6.484c-.715.586-1.172 1.475-1.172 2.47 0 1.76 1.432 3.192 3.192 3.192 1.76 0 3.192-1.432 3.192-3.192 0-1.76-1.432-3.193-3.192-3.193-.117 0-.233.007-.346.019l-2.515-6.454c.907-.27 1.867-.416 2.861-.416 5.537 0 10.042 4.506 10.042 10.044S55.632 34.44 50.095 34.44zm-1.377-10.043c0-.76.618-1.378 1.377-1.378.76 0 1.377.618 1.377 1.378 0 .76-.618 1.377-1.377 1.377-.76 0-1.377-.618-1.377-1.377z"/>
    </g>
</svg>
