<svg xmlns="http://www.w3.org/2000/svg" width="23" height="29" viewBox="0 0 23 29">
    <g fill="#FFF">
        <path d="M21.516 10.24h-1.024V9.216C20.486 4.128 16.363.006 11.276 0 6.188.006 2.066 4.128 2.06 9.216v1.024H1.036c-.566 0-1.024.458-1.024 1.024v16.384c0 .566.458 1.024 1.024 1.024h20.48c.566 0 1.024-.458 1.024-1.024V11.264c0-.566-.458-1.024-1.024-1.024zM4.108 9.216c0-3.959 3.21-7.168 7.168-7.168 3.959 0 7.168 3.21 7.168 7.168v1.024H4.108V9.216zm16.384 17.408H2.06V12.288h18.432v14.336z"/>
        <path d="M14.173 17.407c-.433-1.229-1.595-2.05-2.897-2.047-1.693-.003-3.067 1.366-3.07 3.059-.003 1.302.818 2.464 2.046 2.897v2.236c0 .566.458 1.024 1.024 1.024.566 0 1.024-.458 1.024-1.024v-2.236c1.597-.563 2.435-2.313 1.873-3.91zm-2.897 2.049c-.566 0-1.024-.458-1.024-1.024 0-.566.458-1.024 1.024-1.024.566 0 1.024.458 1.024 1.024 0 .566-.458 1.024-1.024 1.024z"/>
    </g>
</svg>
