<?xml version="1.0" encoding="UTF-8" standalone="no"?>
<!-- Created with Inkscape (http://www.inkscape.org/) -->

<svg
   xmlns:dc="http://purl.org/dc/elements/1.1/"
   xmlns:cc="http://creativecommons.org/ns#"
   xmlns:rdf="http://www.w3.org/1999/02/22-rdf-syntax-ns#"
   xmlns:svg="http://www.w3.org/2000/svg"
   xmlns="http://www.w3.org/2000/svg"
   xmlns:xlink="http://www.w3.org/1999/xlink"
   xmlns:sodipodi="http://sodipodi.sourceforge.net/DTD/sodipodi-0.dtd"
   xmlns:inkscape="http://www.inkscape.org/namespaces/inkscape"
   id="svg2"
   version="1.1"
   inkscape:version="0.91 r13725"
   xml:space="preserve"
   width="230mm"
   height="230mm"
   viewBox="0 0 814.96066 814.96066"
   sodipodi:docname="Xapa Relleu.svg"><metadata
     id="metadata8"><rdf:RDF><cc:Work
         rdf:about=""><dc:format>image/svg+xml</dc:format><dc:type
           rdf:resource="http://purl.org/dc/dcmitype/StillImage" /><dc:title></dc:title></cc:Work></rdf:RDF></metadata><defs
     id="defs6"><linearGradient
       inkscape:collect="always"
       id="linearGradient4411"><stop
         style="stop-color:#ffd369;stop-opacity:1"
         offset="0"
         id="stop4413" /><stop
         id="stop4419"
         offset="0.23745176"
         style="stop-color:#dea826;stop-opacity:1" /><stop
         style="stop-color:#ebae19;stop-opacity:1"
         offset="0.85424709"
         id="stop4421" /><stop
         style="stop-color:#b47f00;stop-opacity:1"
         offset="1"
         id="stop4415" /></linearGradient><linearGradient
       id="linearGradient4895"
       inkscape:collect="always"><stop
         id="stop4897"
         offset="0"
         style="stop-color:#ff6969;stop-opacity:1" /><stop
         id="stop4899"
         offset="1"
         style="stop-color:#a00000;stop-opacity:1" /></linearGradient><linearGradient
       inkscape:collect="always"
       id="linearGradient4877"><stop
         style="stop-color:#ff6969;stop-opacity:1"
         offset="0"
         id="stop4879" /><stop
         style="stop-color:#780000;stop-opacity:1"
         offset="1"
         id="stop4881" /></linearGradient><linearGradient
       id="prova2"
       inkscape:collect="always"><stop
         id="stop4871"
         offset="0"
         style="stop-color:#f2bc76;stop-opacity:1" /><stop
         id="stop4873"
         offset="1"
         style="stop-color:#91590f;stop-opacity:1" /></linearGradient><linearGradient
       inkscape:collect="always"
       id="linearGradient4875"><stop
         style="stop-color:#dc0000;stop-opacity:1"
         offset="0"
         id="stop4584" /><stop
         style="stop-color:#500000;stop-opacity:1"
         offset="1"
         id="stop4586" /></linearGradient><radialGradient
       inkscape:collect="always"
       xlink:href="#prova2"
       id="radialGradient4588-2"
       cx="375.73538"
       cy="545.90692"
       fx="375.73538"
       fy="545.90692"
       r="14.541487"
       gradientTransform="matrix(-0.70031881,-0.22047797,-0.95718616,3.0403739,797.07577,-1531.7603)"
       gradientUnits="userSpaceOnUse" /><radialGradient
       inkscape:collect="always"
       xlink:href="#linearGradient4877"
       id="radialGradient3427"
       gradientUnits="userSpaceOnUse"
       gradientTransform="matrix(-0.58736248,-0.00133629,0.00577574,-2.5387163,585.57897,1942.4221)"
       cx="495.68744"
       cy="550.83716"
       fx="495.68744"
       fy="550.83716"
       r="14.541487" /><radialGradient
       inkscape:collect="always"
       xlink:href="#linearGradient4875"
       id="radialGradient3429"
       gradientUnits="userSpaceOnUse"
       gradientTransform="matrix(6.4040317e-8,0.61407199,-1.0436855,1.5225705e-7,339.7707,-130.56315)"
       cx="261.44424"
       cy="40.762535"
       fx="261.44424"
       fy="40.762535"
       r="29.767902" /><radialGradient
       inkscape:collect="always"
       xlink:href="#linearGradient4895"
       id="radialGradient3431"
       gradientUnits="userSpaceOnUse"
       gradientTransform="matrix(1.1321347e-7,0.23504382,-1.0457958,5.0372809e-7,357.97695,-11.562111)"
       cx="288.14648"
       cy="57.668995"
       fx="288.14648"
       fy="57.668995"
       r="34.566799" /><filter
       inkscape:collect="always"
       style="color-interpolation-filters:sRGB"
       id="filter4403"
       x="-0.01815113"
       width="1.0363023"
       y="-0.035410331"
       height="1.0708207"><feGaussianBlur
         inkscape:collect="always"
         stdDeviation="3.3615175"
         id="feGaussianBlur4405" /></filter><filter
       inkscape:collect="always"
       style="color-interpolation-filters:sRGB"
       id="filter4407"
       x="-0.018151158"
       width="1.0363023"
       y="-0.035410225"
       height="1.0708205"><feGaussianBlur
         inkscape:collect="always"
         stdDeviation="3.3615222"
         id="feGaussianBlur4409" /></filter><linearGradient
       inkscape:collect="always"
       xlink:href="#linearGradient4411"
       id="linearGradient4417"
       x1="323.82715"
       y1="491.7262"
       x2="323.82715"
       y2="191.7975"
       gradientUnits="userSpaceOnUse" /><linearGradient
       gradientTransform="matrix(1.25,0,0,-1.25,-177.52137,646.63015)"
       inkscape:collect="always"
       xlink:href="#linearGradient4411"
       id="linearGradient4417-3"
       x1="323.82715"
       y1="491.7262"
       x2="323.82715"
       y2="191.7975"
       gradientUnits="userSpaceOnUse" /></defs><sodipodi:namedview
     pagecolor="#ffffff"
     bordercolor="#666666"
     borderopacity="1"
     objecttolerance="10"
     gridtolerance="10"
     guidetolerance="10"
     inkscape:pageopacity="0"
     inkscape:pageshadow="2"
     inkscape:window-width="1280"
     inkscape:window-height="751"
     id="namedview4"
     showgrid="false"
     inkscape:zoom="0.69083092"
     inkscape:cx="407.48031"
     inkscape:cy="407.48031"
     inkscape:window-x="0"
     inkscape:window-y="24"
     inkscape:window-maximized="1"
     inkscape:current-layer="g10"
     units="mm" /><g
     id="g10"
     inkscape:groupmode="layer"
     inkscape:label="FT xapa 2"
     transform="matrix(1.25,0,0,-1.25,0,814.96067)"><path
       inkscape:connector-curvature="0"
       id="path140-2"
       style="fill:#c80000;fill-opacity:1;stroke:none;stroke-width:0.80000001;stroke-linecap:butt;stroke-linejoin:miter;stroke-miterlimit:3.86360002;stroke-dasharray:none;stroke-opacity:1"
       d="m 88.502608,324.48812 c 0,131.15874 106.322452,237.4815 237.481602,237.4815 131.15925,0 237.4817,-106.32276 237.4817,-237.4815 0,-131.15874 -106.32245,-237.481498 -237.4817,-237.481498 -131.15915,0 -237.481602,106.322758 -237.481602,237.481498 z" /><use
       x="0"
       y="0"
       xlink:href="#use4955"
       id="use4989"
       transform="matrix(-0.5,0.8660254,-0.8660254,-0.5,769.9877,204.4204)"
       width="100%"
       height="100%" /><use
       x="0"
       y="0"
       xlink:href="#use4957"
       id="use4991"
       transform="matrix(-0.5,0.8660254,-0.8660254,-0.5,769.9877,204.4204)"
       width="100%"
       height="100%" /><use
       x="0"
       y="0"
       xlink:href="#use4959"
       id="use4993"
       transform="matrix(-0.5,0.8660254,-0.8660254,-0.5,769.9877,204.4204)"
       width="100%"
       height="100%" /><use
       x="0"
       y="0"
       xlink:href="#use4961"
       id="use4995"
       transform="matrix(-0.5,0.8660254,-0.8660254,-0.5,769.9877,204.4204)"
       width="100%"
       height="100%" /><use
       x="0"
       y="0"
       xlink:href="#use4963"
       id="use4997"
       transform="matrix(-0.5,0.8660254,-0.8660254,-0.5,769.9877,204.4204)"
       width="100%"
       height="100%" /><use
       x="0"
       y="0"
       xlink:href="#use4965"
       id="use4999"
       transform="matrix(-0.5,0.8660254,-0.8660254,-0.5,769.9877,204.4204)"
       width="100%"
       height="100%" /><use
       x="0"
       y="0"
       xlink:href="#use4967"
       id="use5001"
       transform="matrix(-0.5,0.8660254,-0.8660254,-0.5,769.9877,204.4204)"
       width="100%"
       height="100%" /><use
       x="0"
       y="0"
       xlink:href="#use4907"
       id="use4955"
       transform="matrix(-0.5,0.8660254,-0.8660254,-0.5,770.01157,204.42192)"
       width="100%"
       height="100%" /><use
       x="0"
       y="0"
       xlink:href="#use4909"
       id="use4957"
       transform="matrix(-0.5,0.8660254,-0.8660254,-0.5,770.01157,204.42192)"
       width="100%"
       height="100%" /><use
       x="0"
       y="0"
       xlink:href="#use4911"
       id="use4959"
       transform="matrix(-0.5,0.8660254,-0.8660254,-0.5,770.01157,204.42192)"
       width="100%"
       height="100%" /><use
       x="0"
       y="0"
       xlink:href="#use4913"
       id="use4961"
       transform="matrix(-0.5,0.8660254,-0.8660254,-0.5,770.01157,204.42192)"
       width="100%"
       height="100%" /><use
       x="0"
       y="0"
       xlink:href="#use4915"
       id="use4963"
       transform="matrix(-0.5,0.8660254,-0.8660254,-0.5,770.01157,204.42192)"
       width="100%"
       height="100%" /><use
       x="0"
       y="0"
       xlink:href="#use4917"
       id="use4965"
       transform="matrix(-0.5,0.8660254,-0.8660254,-0.5,770.01157,204.42192)"
       width="100%"
       height="100%" /><use
       x="0"
       y="0"
       xlink:href="#g4903"
       id="use4967"
       transform="matrix(-0.5,0.8660254,-0.8660254,-0.5,770.01157,204.42192)"
       width="100%"
       height="100%" /><use
       x="0"
       y="0"
       xlink:href="#g4903"
       id="use4907"
       transform="matrix(0.95557281,0.29475517,-0.29475517,0.95557281,110.12466,-81.659044)"
       width="100%"
       height="100%" /><use
       x="0"
       y="0"
       xlink:href="#use4907"
       id="use4909"
       transform="matrix(0.95557281,0.29475517,-0.29475517,0.95557281,110.12257,-81.665835)"
       width="100%"
       height="100%" /><use
       x="0"
       y="0"
       xlink:href="#use4909"
       id="use4911"
       transform="matrix(0.95557281,0.29475517,-0.29475517,0.95557281,110.11909,-81.658142)"
       width="100%"
       height="100%" /><use
       x="0"
       y="0"
       xlink:href="#use4911"
       id="use4913"
       transform="matrix(0.95557281,0.29475517,-0.29475517,0.95557281,110.11928,-81.667467)"
       width="100%"
       height="100%" /><use
       x="0"
       y="0"
       xlink:href="#use4913"
       id="use4915"
       transform="matrix(0.95557281,0.29475517,-0.29475517,0.95557281,110.118,-81.669169)"
       width="100%"
       height="100%" /><use
       x="0"
       y="0"
       xlink:href="#use4915"
       id="use4917"
       transform="matrix(0.95557281,0.29475517,-0.29475517,0.95557281,110.12266,-81.671967)"
       width="100%"
       height="100%" /><g
       id="g4754"
       transform="translate(28.346511,26.850122)"><use
         height="100%"
         width="100%"
         transform="matrix(-0.5,0.8660254,-0.8660254,-0.5,704.22156,188.69797)"
         id="use4724"
         xlink:href="#use4694"
         y="0"
         x="0" /><use
         height="100%"
         width="100%"
         transform="matrix(-0.5,0.8660254,-0.8660254,-0.5,704.22156,188.69797)"
         id="use4726"
         xlink:href="#use4696"
         y="0"
         x="0" /><use
         height="100%"
         width="100%"
         transform="matrix(-0.5,0.8660254,-0.8660254,-0.5,704.22156,188.69797)"
         id="use4728"
         xlink:href="#use4698"
         y="0"
         x="0" /><use
         height="100%"
         width="100%"
         transform="matrix(-0.5,0.8660254,-0.8660254,-0.5,704.22156,188.69797)"
         id="use4730"
         xlink:href="#use4700"
         y="0"
         x="0" /><use
         height="100%"
         width="100%"
         transform="matrix(-0.5,0.8660254,-0.8660254,-0.5,704.22156,188.69797)"
         id="use4732"
         xlink:href="#use4702"
         y="0"
         x="0" /><use
         height="100%"
         width="100%"
         transform="matrix(-0.5,0.8660254,-0.8660254,-0.5,704.22156,188.69797)"
         id="use4734"
         xlink:href="#use4704"
         y="0"
         x="0" /><use
         height="100%"
         width="100%"
         transform="matrix(-0.5,0.8660254,-0.8660254,-0.5,704.22156,188.69797)"
         id="use4736"
         xlink:href="#use4706"
         y="0"
         x="0" /><use
         height="100%"
         width="100%"
         transform="matrix(-0.5,0.8660254,-0.8660254,-0.5,704.21849,188.69909)"
         id="use4694"
         xlink:href="#use4692"
         y="0"
         x="0" /><use
         height="100%"
         width="100%"
         transform="matrix(-0.5,0.8660254,-0.8660254,-0.5,704.21849,188.69909)"
         id="use4696"
         xlink:href="#use4671"
         y="0"
         x="0" /><use
         height="100%"
         width="100%"
         transform="matrix(-0.5,0.8660254,-0.8660254,-0.5,704.21849,188.69909)"
         id="use4698"
         xlink:href="#use4669"
         y="0"
         x="0" /><use
         height="100%"
         width="100%"
         transform="matrix(-0.5,0.8660254,-0.8660254,-0.5,704.21849,188.69909)"
         id="use4700"
         xlink:href="#use4667"
         y="0"
         x="0" /><use
         height="100%"
         width="100%"
         transform="matrix(-0.5,0.8660254,-0.8660254,-0.5,704.21849,188.69909)"
         id="use4702"
         xlink:href="#use4665"
         y="0"
         x="0" /><use
         height="100%"
         width="100%"
         transform="matrix(-0.5,0.8660254,-0.8660254,-0.5,704.21849,188.69909)"
         id="use4704"
         xlink:href="#use4663"
         y="0"
         x="0" /><use
         height="100%"
         width="100%"
         transform="matrix(-0.5,0.8660254,-0.8660254,-0.5,704.21849,188.69909)"
         id="use4706"
         xlink:href="#path166"
         y="0"
         x="0" /><use
         height="100%"
         width="100%"
         transform="matrix(0.82623596,-0.56332418,0.56332418,0.82623596,-115.93794,219.40677)"
         id="use4692"
         xlink:href="#path166"
         y="0"
         x="0" /><use
         height="100%"
         width="100%"
         transform="matrix(0.95557207,-0.29475756,0.29475756,0.95557207,-74.505739,100.96629)"
         id="use4671"
         xlink:href="#path166"
         y="0"
         x="0" /><use
         height="100%"
         width="100%"
         transform="matrix(0.36534103,0.93087376,-0.93087376,0.36534103,465.92787,-88.154261)"
         id="use4669"
         xlink:href="#path166"
         y="0"
         x="0" /><use
         height="100%"
         width="100%"
         transform="matrix(0.62348981,0.78183149,-0.78183149,0.62348981,344.73877,-120.60467)"
         id="use4667"
         xlink:href="#path166"
         y="0"
         x="0" /><use
         height="100%"
         width="100%"
         transform="matrix(0.82623878,0.56332006,-0.56332006,0.82623878,219.39882,-115.96454)"
         id="use4665"
         xlink:href="#path166"
         y="0"
         x="0" /><use
         height="100%"
         width="100%"
         transform="matrix(0.95557281,0.29475517,-0.29475517,0.95557281,100.95857,-74.517267)"
         id="use4663"
         xlink:href="#path166"
         y="0"
         x="0" /><path
         d="m 297.653,581.011 c -8.4869,0 -13.5801,-7.51 -12.726,-16.363 0.8531,-8.842 2.5657,-34.079 12.6821,-34.079 10.1164,0 11.8299,25.237 12.6833,34.078 0.8545,8.853 -4.1525,16.364 -12.6394,16.364 z"
         style="color:#000000;clip-rule:nonzero;display:inline;overflow:visible;visibility:visible;opacity:1;isolation:auto;mix-blend-mode:normal;color-interpolation:sRGB;color-interpolation-filters:linearRGB;solid-color:#000000;solid-opacity:1;fill:url(#radialGradient3427);fill-opacity:1;fill-rule:evenodd;stroke:none;stroke-width:1;stroke-linecap:butt;stroke-linejoin:miter;stroke-miterlimit:4;stroke-dasharray:none;stroke-dashoffset:0;stroke-opacity:1;color-rendering:auto;image-rendering:auto;shape-rendering:auto;text-rendering:auto;enable-background:accumulate"
         id="path166"
         inkscape:connector-curvature="0" /></g><path
       inkscape:connector-curvature="0"
       id="path20"
       style="fill:url(#linearGradient4417);fill-opacity:1;fill-rule:evenodd;stroke:none;color:#000000;clip-rule:nonzero;display:inline;overflow:visible;visibility:visible;opacity:1;isolation:auto;mix-blend-mode:normal;color-interpolation:sRGB;color-interpolation-filters:linearRGB;solid-color:#000000;solid-opacity:1;stroke-width:1;stroke-linecap:butt;stroke-linejoin:miter;stroke-miterlimit:4;stroke-dasharray:none;stroke-dashoffset:0;stroke-opacity:1;filter-blend-mode:normal;filter-gaussianBlur-deviation:0;color-rendering:auto;image-rendering:auto;shape-rendering:auto;text-rendering:auto;enable-background:accumulate"
       d="m 118.41851,324.48812 c 0,114.637 92.9289,207.566 207.5658,207.566 114.6368,0 207.5657,-92.929 207.5657,-207.566 0,-114.637 -92.9289,-207.566 -207.5657,-207.566 -114.6369,0 -207.5658,92.929 -207.5658,207.566 z m -7.1575,0 c 0,118.59 96.1334,214.723 214.7233,214.723 118.5899,0 214.7232,-96.133 214.7232,-214.723 0,-118.59 -96.1333,-214.723 -214.7232,-214.723 -118.5899,0 -214.7233,96.133 -214.7233,214.723 z" /><path
       inkscape:connector-curvature="0"
       id="path22"
       style="color:#000000;clip-rule:nonzero;display:inline;overflow:visible;visibility:visible;opacity:1;isolation:auto;mix-blend-mode:normal;color-interpolation:sRGB;color-interpolation-filters:linearRGB;solid-color:#000000;solid-opacity:1;fill:url(#linearGradient4417);fill-opacity:1;fill-rule:evenodd;stroke:none;stroke-width:1;stroke-linecap:butt;stroke-linejoin:miter;stroke-miterlimit:4;stroke-dasharray:none;stroke-dashoffset:0;stroke-opacity:1;color-rendering:auto;image-rendering:auto;shape-rendering:auto;text-rendering:auto;enable-background:accumulate"
       d="M 439.68257,167.37758 325.98443,249.983 212.28595,167.37758 l 43.42825,133.66056 -113.6971,82.60888 140.5377,0 43.42963,133.6571 43.42929,-133.6571 140.5377,0 -113.6971,-82.60888 43.42825,-133.66056 z" /><g
       id="g4903"
       transform="translate(28.346511,26.850122)"><path
         d="m 297.625,57.765 c -12.5,0 -27,-0.5 -27,-12.25 0,-13.88 -3.75,-22.375 -2.5,-22.25 1.25,0.125 2.875,5.694 29.5225,5.694 26.6476,0 28.2531,-5.569 29.5031,-5.694 1.25,-0.125 -2.5,8.37 -2.5,22.25 0,11.75 -14.5256,12.25 -27.0256,12.25 z"
         style="fill:url(#radialGradient3429);fill-opacity:1;fill-rule:evenodd;stroke:none"
         id="path186"
         inkscape:connector-curvature="0" /><path
         d="m 270.8055,47.674 c -0.2642,9.193 -1.8893,18.482 -7.7053,19.576 11.3281,-1.573 22.8319,-2.437 34.5375,-2.437 11.7559,0 23.3083,0.871 34.5961,2.552 -5.8348,-0.982 -7.4966,-10.387 -7.7639,-19.692 -1.7048,9.655 -15.1599,10.092 -26.8449,10.092 -11.6845,0 -25.1165,-0.437 -26.8195,-10.091 z"
         style="fill:url(#radialGradient3431);fill-opacity:1;fill-rule:evenodd;stroke:none"
         id="path188"
         inkscape:connector-curvature="0" /></g><path
       inkscape:connector-curvature="0"
       id="path14-6"
       style="fill:none;fill-opacity:1;fill-rule:evenodd;stroke:#3c0000;stroke-width:1.60000002;stroke-linecap:round;stroke-linejoin:round;stroke-miterlimit:4;stroke-dasharray:none;stroke-opacity:1"
       d="m 242.45851,595.32212 c 7.5129,2.317 14.1592,-4.817 18.4793,-6.101 4.1849,-1.243 11.0066,-0.897 25.0226,0.885 14.2428,1.812 20.5389,4.109 24.1715,6.53 3.75,2.5 8,11.272 15.8622,11.272 7.8623,0 12.1123,-8.772 15.8623,-11.272 3.6326,-2.421 9.9287,-4.718 24.1714,-6.53 14.0161,-1.782 20.8378,-2.128 25.0227,-0.885 4.3201,1.284 10.9836,8.404 18.4962,6.087 7.5127,-2.317 8.988,-11.956 11.8343,-15.45 2.7573,-3.385 8.0965,-7.435 21.172,-13.364 12.8674,-5.835 19.2838,-8.176 23.6491,-8.222 4.5064,-0.05 12.9721,4.784 19.4676,0.356 6.4956,-4.429 5.0646,-14.065 6.7545,-18.242 1.637,-4.047 5.5449,-9.492 16.2914,-19.011 10.5755,-9.368 16.0165,-13.496 20.1743,-14.827 4.2922,-1.373 13.8013,0.754 18.7026,-5.393 4.9014,-6.146 0.698,-14.937 1.0813,-19.427 0.3714,-4.35 2.5008,-10.704 9.9637,-22.967 7.344,-12.069 11.3262,-17.617 14.907,-20.114 3.6966,-2.577 13.4125,-3.35 16.2842,-10.668 2.8717,-7.318 -3.7387,-14.477 -4.6959,-18.88 -0.9272,-4.266 -0.7653,-10.965 2.7509,-24.883 3.4603,-13.697 5.6299,-20.172 8.3157,-23.614 2.7725,-3.552 11.836,-7.153 12.423,-14.992 0.5871,-7.839 -7.8469,-12.732 -10.0595,-16.658 -2.1433,-3.802 -3.9632,-10.251 -4.7057,-24.587 -0.7308,-14.107 -0.5663,-20.935 0.9858,-25.014 1.6022,-4.212 9.2078,-10.307 7.4582,-17.97 -1.7499,-7.665 -11.202,-9.887 -14.4737,-12.987 -3.1692,-3.003 -6.2805,-9.083 -11.7448,-22.113 -5.5527,-13.24 -6.7117,-19.841 -6.4307,-24.198 0.29,-4.498 5.7615,-12.564 1.8304,-19.373 -3.9312,-6.809 -13.6527,-6.104 -17.6928,-8.101 -3.9136,-1.935 -9.0508,-6.24 -17.7409,-17.669 -8.5519,-11.247 -12.2624,-16.981 -13.2781,-21.227 -1.0485,-4.383 1.7865,-13.714 -3.9768,-19.062 -5.7634,-5.347 -14.8481,-1.806 -19.2973,-2.524 -4.31,-0.695 -10.4874,-3.294 -22.1599,-11.653 -11.4867,-8.225998 -16.7226,-12.611998 -18.9446,-16.369998 -2.2938,-3.879 -2.343,-13.626 -9.4262,-17.037 -7.0832,-3.411 -14.7124,2.646 -19.1755,3.271 -4.3233,0.606 -10.992,-0.06 -24.6094,-4.603 -13.4006,-4.475 -19.6965,-7.123 -22.9274,-10.058 -3.3352,-3.031 -6.2485,-12.329 -14.0222,-13.501 -7.7736,-1.171 -13.2849,6.864 -17.3652,8.778 -3.9525,1.853 -10.5199,3.186 -24.8721,2.855 -14.1237,-0.326 -20.9201,-1.001 -24.8726,-2.853 -4.0802,-1.913 -9.6078,-9.941 -17.3811,-8.769 -7.7733,1.172 -10.6679,10.476 -14.0028,13.507 -3.2305,2.936 -9.113,6.145 -22.9246,10.059 -13.5918,3.852 -20.2848,5.211 -24.6077,4.605 -4.4626,-0.625 -12.1136,-6.673 -19.1958,-3.262 -7.0822,3.411 -7.1026,13.162 -9.396,17.041 -2.2215,3.757 -6.8965,8.558 -18.9403,16.368998 -11.8521,7.686 -17.8469,10.958 -22.1561,11.653 -4.4484,0.719 -13.5765,-2.843 -19.3384,2.504 -5.76329,5.347 -2.9127,14.668 -3.9612,19.051 -1.01569,4.246 -4.7262,9.981 -13.278,21.228 -8.6901,11.429 -13.8272,15.733 -17.740799,17.668 -4.0401,1.997 -13.7616,1.292 -17.6927,8.101 -3.9311,6.809 1.5404,14.875 1.8304,19.373 0.281,4.357 -0.8779,10.958 -6.4306,24.198 -5.4642,13.03 -8.5755,19.111 -11.7447,22.113 -3.2716,3.1 -12.7701,5.31 -14.5195,12.975 -1.7493,7.665 5.8601,13.762 7.463,17.974 1.5527,4.08 2.3909,10.729 0.9878,25.017 -1.3808,14.061 -2.5613,20.789 -4.7046,24.592 -2.2125,3.926 -10.6292,8.842 -10.0415,16.682 0.5877,7.839 9.6478,11.418 12.421,14.97 2.6863,3.441 5.4471,9.548 8.3179,23.614 2.8251,13.843 3.68,20.619 2.753,24.885 -0.9569,4.404 -7.5529,11.576 -4.6805,18.894 2.8723,7.318 12.587,8.073 16.2839,10.65 3.5812,2.496 8.0191,7.517 14.9084,20.112 6.779699,12.395 9.593899,18.618 9.965499,22.967 0.3837,4.49 -3.804699,13.291 1.0969,19.437 4.9016,6.146 14.4066,4 18.6987,5.373 4.15771,1.33 9.8784,4.82 20.1737,14.824 10.1315,9.845 14.6549,14.962 16.292,19.008 1.69,4.177 0.2775,13.827 6.7727,18.255 6.4951,4.428 14.9496,-0.43 19.4555,-0.383 4.3648,0.05 10.8597,1.694 23.6461,8.218 12.5829,6.421 18.4133,9.977 21.1703,13.361 2.8461,3.494 4.3257,13.185 11.8372,15.502 z" /><path
       inkscape:connector-curvature="0"
       id="path3109"
       style="fill:#3c0000;fill-opacity:1;fill-rule:nonzero;stroke:none;filter:url(#filter4407)"
       d="m 103.73926,314.80012 c 0,1.872 0.023,3.738 0.069,5.599 2.9712,-120.152 101.2993,-216.636 222.1662,-216.636 120.8667,0 219.1951,96.484 222.166,216.636 0.046,-1.861 0.069,-3.727 0.069,-5.599 0,-122.739 -99.4966,-222.235 -222.2351,-222.235 -122.73874,0 -222.23534,99.496 -222.23534,222.235 z" /><path
       inkscape:connector-curvature="0"
       id="path3111"
       style="fill:#ffcdcd;fill-opacity:1;fill-rule:nonzero;stroke:none;filter:url(#filter4403)"
       d="m 548.22926,334.17612 c 0,-1.872 -0.023,-3.738 -0.069,-5.598 -2.97116,120.151 -101.29926,216.635 -222.16626,216.635 -120.8667,0 -219.1951,-96.484 -222.166,-216.635 -0.046,1.86 -0.069,3.726 -0.069,5.598 0,122.739 99.4963,222.235 222.2351,222.235 122.7388,0 222.2354,-99.496 222.2354,-222.235 z" /></g></svg>